<?xml version="1.0" encoding="UTF-8"?><svg xmlns="http://www.w3.org/2000/svg" viewBox="0 0 164.83 164.83"><defs><style>.e{fill:#fff;}</style></defs><g id="a"/><g id="b"><g id="c"><g id="d"><g><path class="e" d="M128.6,84.45c-.1,0-.19-.01-.29-.01-1.93,0-3.57,1.49-3.72,3.45-.16,2.06,1.38,3.85,3.44,4.01,.1,0,.19,.01,.29,.01,1.93,0,3.57-1.49,3.72-3.45,.16-2.06-1.38-3.85-3.44-4.01Z"/><circle class="e" cx="77.13" cy="114.12" r="3.73"/><path class="e" d="M82.42,0C36.9,0,0,36.9,0,82.42s36.9,82.42,82.42,82.42,82.42-36.9,82.42-82.42S127.93,0,82.42,0Zm56.6,88.99c-.43,5.56-5.12,9.91-10.7,9.91-.27,0-.55-.01-.82-.03-2.33-.18-4.48-1.1-6.21-2.6-9.94,5.58-20.1,11.04-29.95,16.33l-3.5,1.88c-.19,5.75-4.92,10.37-10.71,10.37-5.43,0-9.91-4.05-10.62-9.29-.05-.02-.11-.03-.16-.06-1.96-.93-3.92-1.83-5.85-2.73-9.83-4.57-19.11-8.88-28.62-15-.47-.3-.87-.72-1.15-1.21-4.35-7.61-4.57-13.9-.76-21.73,.34-.7,.9-1.27,1.6-1.61,4.86-2.39,9.91-4.52,15.01-6.51,15.02-7.54,35.35-17.7,38.24-18.94,4.67-2,3.33-2.93,46.52,17.86,0,0,4.13,1.6-2.53,4.53-6.67,2.93-48.65,25.06-48.65,25.06,0,0-4.93,3.33-10.93,.13-4.9-2.61-24.93-13.23-32.09-17.03-.45,.21-.91,.42-1.36,.64-2.13,4.88-1.95,8.58,.63,13.39,8.86,5.61,17.7,9.72,27.05,14.06,1.5,.7,3.02,1.41,4.53,2.12,1.89-3.09,5.28-5.16,9.15-5.16,3.5,0,6.61,1.69,8.57,4.3l2.33-1.25c9.79-5.26,19.89-10.68,29.75-16.22-.18-.93-.24-1.89-.17-2.86,.43-5.56,5.12-9.91,10.7-9.91h0c.27,0,.55,.01,.82,.03,2.86,.22,5.46,1.54,7.33,3.71,1.87,2.18,2.77,4.95,2.56,7.81Z"/></g></g></g></g></svg>