<?xml version="1.0" encoding="UTF-8"?><svg xmlns="http://www.w3.org/2000/svg" viewBox="0 0 146.13 147.58"><defs><style>.e{fill:#f7bc0e;}</style></defs><g id="a"/><g id="b"><g id="c"><g id="d"><g><path class="e" d="M138.75,79.48c-4.16-.42-7.92,2.38-8.8,6.47-5.69,26.42-29.54,46.09-57.85,45.28-29.84-.86-54.33-24.89-55.7-54.71-1.52-32.97,24.76-60.18,57.4-60.18,13.8,0,26.45,4.87,36.36,12.97l-5.56,4.75c-2.65,2.26-1.42,6.59,2.03,7.12l22.69,3.46c2.45,.37,4.67-1.51,4.68-4l.15-22.95c.02-3.49-4.06-5.39-6.71-3.12l-4.71,4.02C109.39,6.76,91.78-.32,72.5,.01,32.35,.7-.16,33.93,0,74.08c.16,40.62,33.13,73.5,73.79,73.5,35.46,0,65.06-25.02,72.16-58.36,1.01-4.73-2.39-9.26-7.2-9.74Z"/><path class="e" d="M98.29,69.95l-30.48-24c-4.06-3.19-10.01-.3-10.01,4.86v48c0,5.16,5.95,8.05,10.01,4.86l30.48-24c3.15-2.48,3.15-7.24,0-9.72Z"/></g></g></g></g></svg>