<svg xmlns="http://www.w3.org/2000/svg" viewBox="0 0 164.83 164.83" fill="#f7bc0e">
	<path d="M82.42,0C36.9,0,0,36.9,0,82.42s36.9,82.42,82.42,82.42,82.42-36.9,82.42-82.42S127.93,0,82.42,0Zm46.53,46.78c-.44,5.56-10.44,50.22-13.22,66.56s-6.11,13.78-9.33,13.78-24.89-17.78-24.89-17.78c0,0-3.22,3.22-9.11,8.78-5.89,5.56-8.44,5.44-9.56,2.22-1.11-3.22-9.67-28.44-9.67-28.44,0,0-1.33-.44-15.67-4.56s-9.22-7.89-7.22-9.56c2-1.67,86.33-32.89,92.33-35.11,0,0,6.78-1.44,6.33,4.11Z" />
	<path d="M107.61,58.44c-2.44,1.56-50.22,31.56-50.22,31.56l8.67,26.67,1.78-19.44s38-33.33,42.44-37.78c4.44-4.44-.22-2.56-2.67-1Z" />
</svg>
