<svg xmlns="http://www.w3.org/2000/svg" viewBox="0 0 164.83 164.83" fill="#f7bc0e">
	<path class="e" d="M82.42,0C36.9,0,0,36.9,0,82.42s36.9,82.42,82.42,82.42,82.42-36.9,82.42-82.42S127.93,0,82.42,0Zm45.35,63.84c1.47,36.59-24.47,57.31-49.39,62.87-24.92,5.55-44.63-8.61-44.63-8.61,25.15,.68,30.47-9.29,30.47-9.29-18.01-.68-18.8-14.95-18.8-14.95,6.46,.34,7.36-1.13,7.36-1.13-16.54-.45-17.1-21.29-15.63-20.16,1.47,1.13,9.06,1.7,9.06,1.7-15.06-14.39-6-28.2-6-28.2,22.99,23.9,44.4,22.31,44.4,22.31,0,0-7.48-16.2,10.65-23.67,18.12-7.48,26.96,4.53,26.96,4.53l13.25-5.44c-.45,6.23-8.04,11.44-8.04,11.44l11.21-2.38c-2.04,5.32-10.87,10.99-10.87,10.99Z" />
</svg>
