<?xml version="1.0" encoding="utf-8"?>
<!-- Generator: Adobe Illustrator 24.1.0, SVG Export Plug-In . SVG Version: 6.00 Build 0) -->
<svg version="1.1" id="Layer_1" xmlns="http://www.w3.org/2000/svg" xmlns:xlink="http://www.w3.org/1999/xlink" x="0px" y="0px" viewBox="0 0 488.1 265.6" style="enable-background:new 0 0 488.1 265.6;" xml:space="preserve">
	<style type="text/css">
		.st0{fill:none;stroke:#FFE81F;stroke-width:6;stroke-linecap:round;stroke-linejoin:round;}
		.st1{fill:none;stroke:#FFE81F;stroke-width:11;stroke-linecap:round;stroke-linejoin:round;}
		
		.st2{opacity:0.32;fill:none;stroke:#FFE81F;stroke-width:11;stroke-linecap:round;stroke-linejoin:round;enable-background:new    ;}
		.st3{opacity:0.54;}
		
		.st4{opacity:0.31;fill:none;stroke:#FFE81F;stroke-width:11;stroke-linecap:round;stroke-linejoin:round;enable-background:new    ;}
		.st5{fill:#FFE81F;}
		.st6{fill:#862D33;}
		.st7{fill:#010203;}
		.st8{opacity:0.32;fill:#010203;enable-background:new    ;}
		.st9{fill:#141216;}
		.st10{fill:#D09D35;}
		.st11{fill:#E4D98F;}
		.st12{opacity:0.31;fill:#010203;enable-background:new    ;}
		.st13{fill:#ECEBE5;}
		.st14{fill:#3A3636;}
		.st15{fill:#33030F;}
		.st16{fill:#AE3D3E;}
		.st17{fill:#FFFFFF;}
	</style>
	<g id="a">
	</g>
	<g id="b">
		<g id="c">
		</g>
		<g id="d">
		</g>
		<g id="e">
			<g id="f">
			</g>
			<g id="g">
			</g>
			<g id="h">
			</g>
			<g id="i">
			</g>
		</g>
		<g id="j">
		</g>
		<g id="k">
		</g>
		<g id="l">
		</g>
		<g id="m">
		</g>
		<g>
			<g>
				<path class="st0" d="M304.9,125.6c13.7,0,25.7-4.4,35.9-13.2c10.1-8.7,16.8-20.4,20.1-34.9c2.9-1.9,4.4-4.7,4.4-8.3
				c0-2.8-1-5.1-3-7s-4.4-2.9-7.4-2.9c-13.3,0-24.9,0.8-34.9,2.5c-17.7,3-26.5,8.2-26.5,15.7c0,2.5,0.9,4.8,2.7,6.8
				c2,2.2,4.5,3.4,7.5,3.4c1.5,0,3-0.3,4.5-1c8.4-3.8,18.3-6.1,29.6-7c-2.9,8.6-7.3,15.1-13.3,19.6c-5.7,4.2-12.2,6.4-19.7,6.4
				s-12.2-1.5-14.7-4.6c-2.4-2.9-3.6-8.5-3.6-16.6c0-16.1,5.4-31,16.3-44.8c7.5-9.5,13.4-14.2,17.8-14.2c4.1,0,8.7,1.4,13.7,4.1
				s8.2,4.1,9.7,4.1c2.9,0,5.4-1,7.4-3.1c2-2.1,3-4.4,3-7.1c0-4.6-4.8-8.9-14.5-13c-8.2-3.4-14.6-5.1-19.3-5.1
				c-7.8,0-15,2.9-21.8,8.6c-9.7,8.2-17.6,18.8-23.7,31.9c-6.1,13.1-9.2,25.9-9.2,38.4c0,13.7,3.2,24,9.7,30.9
				S291.9,125.6,304.9,125.6L304.9,125.6z" />
				<path class="st0" d="M374.9,90.6c0,15.8,2.7,26,8,30.8c4.8,4.3,15.2,6.5,31.1,6.5s53.7-1,58.6-1.9c5.7-1.1,8.6-4.4,8.6-9.8
				c0-3.3-1.1-5.8-3.4-7.6c-2-1.6-4.4-2.4-7.2-2.4c-0.9,0-2.3,0.1-4.2,0.4s-3.3,0.4-4.3,0.4c-3,0-35.8,0.6-41.9,0.8
				s-10.7,0.2-13.7,0.2c-5.6,0-8.7-0.3-9.2-0.9c-1.1-1.3-1.7-6.8-1.7-16.3c0-3.8,0.2-8.8,0.5-15c14-1.1,24.4-2.1,31.4-2.9
				c7.8-0.7,13.6-1.2,17.5-1.5c6.2-0.8,9.3-4.1,9.3-9.9c0-3-1-5.5-3.1-7.3c-2-1.8-4.5-2.8-7.4-2.8c-2.5,0-8.4,0.5-17.7,1.4
				c-16.4,1.6-25.9,2.5-28.6,2.7c0.4-12.8,0.7-22.4,0.7-28.9c4.7-1.2,9.2-2.1,13.4-2.6c4.2-0.6,8.1-0.9,11.8-0.9
				c7.5,0,15.2,1.1,23.1,3.2c1.1,0.3,2.1,0.4,3.1,0.4c3,0,5.5-1.1,7.5-3.4c1.8-1.9,2.6-4.2,2.6-6.7c0-4.5-2.2-7.6-6.7-9.3
				C445.2,4.4,435.4,3,423,3c-4.5,0-9.4,0.4-14.5,1.1c-5.1,0.7-10.5,1.8-16.1,3.2c-1.8-1.2-3.8-1.8-5.9-1.8
				c-6.8,0-10.2,3.7-10.2,11.1c0,1.7,0.2,4.2,0.7,7.6c0.5,3.3,0.7,5.9,0.7,7.6c0,6.5-0.5,16.3-1.4,29.4
				C375.3,74.2,374.9,84.1,374.9,90.6L374.9,90.6z" />
				<path class="st0" d="M167.4,153.7c0-2.9-1-5.2-2.9-7.1c-1.9-1.8-4.4-2.8-7.4-2.8c-3.9,0-7,1.7-9.4,5.1c-2.1,3.2-3.9,7.5-5.4,13
				c-2,7.6-3.3,12.1-3.8,13.5c-8.7,22.8-15.7,40.3-20.9,52.4c-5.1-22.2-8.2-37.5-9.2-45.9c-1-7.8-1.6-12.7-1.9-14.7
				c-1-6.5-2.1-11.1-3.2-13.5c-2.2-5.2-5.7-7.8-10.5-7.8c-5.1,0-10.1,5.3-14.9,16c-2.1,4.4-4.7,11.9-8,22.5
				c-4.1,12.9-8,24.2-11.9,33.7c-6-26.4-11.4-46.4-16.2-60.2c-1.6-4.5-2.9-7.6-4.2-9.3c-2.2-3.1-5.2-4.7-8.9-4.7
				c-2.8,0-5.2,0.8-7.2,2.3c-2.2,1.7-3.4,4-3.4,7c0,1.2,0.2,2.4,0.7,3.7c7.6,21.4,13,37.9,16.2,49.4c3.7,15.1,6.3,26.5,7.9,34.1
				l2.3,8.6c0.1,3.5,1.4,6.2,4,8.2c2.3,1.8,5.3,2.7,8.9,2.7c2.8,0,5.4-0.8,7.8-2.4c2.7-1.9,4-4.4,4-7.4c0-1.2-0.2-2.4-0.7-3.4
				c1.7-6.7,5.3-15.9,10.8-27.6c3.7-7.8,7.1-16.6,10.2-26.4c3.8,21,6.8,36.6,8.9,47.1c0.6,3.6,2,8.2,4.2,13.8c0.2,2.9,1.6,5.2,4.2,7
				c2.2,1.5,4.8,2.3,7.5,2.3c4.7,0,8.2-2,10.5-6.1c1.8-3.1,3.6-7.2,5.6-12.3c2.7-6.9,7.1-17.3,13.3-31.3
				c6.1-13.7,10.5-24.2,13.3-31.4c1.9-5.6,3.2-9.8,4-12.6c1.1-2.9,2.1-5.4,2.9-7.4C166.6,157.3,167.4,154.7,167.4,153.7L167.4,153.7
				z" />
				<path class="st0" d="M251.1,228.8c-4.3-18.1-7.9-34.2-10.9-48.3c-2.1-10.5-3.6-18.3-4.6-23.5c-1.8-6.5-5.4-9.7-10.8-9.7
				c-2.8,0-10.4,9.2-22.6,27.8c-8.5,12.9-16.2,25.3-23.1,37.4c-4.5,1.3-6.9,3.1-7.1,5.5c-0.1,1.3,0.2,2.7,0.9,4.2
				c-7.1,14.4-10.7,22.9-10.7,25.3c0,2.8,1.1,5.2,3.2,7c2.1,1.8,4.6,2.8,7.2,2.8c3.8,0,6.8-1.8,8.9-5.3c5.6-10.8,9.5-18.9,11.7-24.2
				c4.1-0.7,10-1.4,17.7-1.9c8.2-0.5,14.1-1.1,17.7-1.6c1.9,7.5,4.1,14.2,6.7,19.9c3.9,8.9,7.8,13.5,11.6,13.6
				c2.7,0.1,5.1-0.8,7.2-2.7c2.1-1.9,3.2-4.3,3.2-7.1c0-2.1-0.9-5.2-2.6-9.5C252.7,233.4,251.4,230.2,251.1,228.8L251.1,228.8z
				 M214.3,208.2c-4.6,0.3-8.1,0.7-10.2,1.2c6.7-11.3,11.9-20.2,15.8-26.7c2.1,10.2,3.7,18.4,4.8,24.8
				C223.2,207.6,219.7,207.8,214.3,208.2L214.3,208.2z" />
				<path class="st0" d="M471.4,145.3c-7.4-2.3-34.1-2.2-39.1-2.2c-12.6,0-24.2,4.1-34.6,12.5c-10.5,8.3-15.8,17.4-16,27.4
				c-0.1,7.9,4.5,14,14,18.2c7,3.1,14.9,4.8,23.8,5c11.4,0.3,19,1.1,22.8,2.6c5.3,2,8,6.3,8,12.7c0,4.7-4.3,9-12.8,13
				c-8.2,3.8-16.8,5.3-25.5,5.8c-11.1,0.6-24,2.5-31.3,2.5c-6.5,0-10.2-0.1-12.8-0.2c-3.8-0.8-7-1.6-9.2-2.6
				c-10.1-4.8-16.3-14.9-29.2-22.1c8.7-3.4,15.3-7.5,19.7-12.4c4.4-4.9,6.5-10.6,6.5-17c0-15.5-10.4-28.5-31.3-39
				c-4.8-2.4-10.6-4.1-17.4-4.9c-0.3,0-6.4-0.5-18.2-1.4c-4.4-0.3-7.8,1.1-10.3,4.5c-1.9,2.6-2.9,5.5-2.9,8.6l-0.1,59.1
				c0,3.7,0,9.1-0.1,16.4s-0.1,12.8-0.1,16.4c0,2.8,1,5.1,2.9,7.1c2,1.9,4.4,2.9,7.3,2.9s5.4-1,7.3-2.9c2-1.9,2.9-4.3,2.9-7.1
				c0-1.6-0.3-9.5-0.8-23.7c17.7,5.4,34,15,48.8,28.9c10.4,8.6,30.9,8.4,53,6.9c5.8-0.4,13-0.7,17.3-0.7c14.7,0,25.1-2,36.6-7.1
				c15-6.8,22.5-16.8,22.5-30c0-10.8-3.6-19.3-10.9-25.5c-6.6-5.5-15.6-8.7-26.9-9.6c-6.5-0.4-13-0.7-19.5-1.1
				c-3.7-0.5-6.5-1.4-8.4-2.6c-1.9-1.2-2.8-2.9-2.8-4.8c0-3.7,3.1-7.2,9.2-10.4c5.9-3.1,12.2-4.7,18.8-4.8c2.5,0,26.7-0.7,31.4,0.3
				s8.4,1.5,10.8,1.5c3.2,0,5.9-1.1,7.9-3.5c1.8-2,2.8-4.4,2.8-7C485.1,151.5,480.6,148.2,471.4,145.3L471.4,145.3z M298.4,202.7
				c-0.9,0-2,0-3.2-0.1v-38.9c5.3,0.3,8.2,0.5,8.6,0.6c7.3,0.7,14.2,3.5,20.8,8.3c6.9,5.1,10.4,10.4,10.4,15.8c0,1.1-1,2.7-3.1,4.8
				c-2.1,2.1-4.4,3.8-6.9,5C319.2,201.2,310.4,202.7,298.4,202.7L298.4,202.7z" />
				<path class="st0" d="M69.7,127.4c2,0.2,3.8,0.4,5.6,0.4c14.7,0,26.1-2.6,34.2-7.9c7.2-4.7,12.9-10.9,17.1-18.7
				c4.2-7.6,6.2-15.6,6.2-24.1c0-14-6-26.8-18.1-38.4C104.5,29,92.3,21.8,78,17.2c-1.4-0.4-5.9-2.5-13.5-6.1
				c-6.5-3-10.6-4.5-12.2-4.5c-2.9,0-5.7,1.3-8.3,4s-3.9,5.3-3.9,8c0,5.4,0.1,13.6,0.3,24.4s0.3,19,0.3,24.4c0,0.5,0,1,0,1.6
				c-0.1,2.2-0.1,4.3-0.1,6.1c0,1-0.1,7.7-0.1,9.4c0,2.8,0.9,5.1,2.8,7.1s4.3,2.9,7.2,2.9c2.9,0,5.3-0.9,7.3-2.8s2.9-4.3,3-7
				c0-1.3-0.1-6.9-0.4-16.8l-0.2-35.9C76,38.3,86.1,43,90.9,46c14.2,8.8,21.2,19.3,21.2,31.4c0,5.2-1.3,10.2-3.8,14.9
				c-2.6,4.8-6,8.6-10.4,11.4c-4.6,2.9-12.2,4.4-22.7,4.4c-1.6,0-33.2-0.6-33.4-0.6c0,0-17.5-0.6-19.5-0.6c-1,0-2.4-0.1-4.3-0.4
				s-3.3-0.4-4.2-0.4c-2.8,0-5.2,0.8-7.2,2.4C4.1,110.2,3,112.7,3,116c0,5.5,2.9,8.7,8.6,9.8c4.9,0.9,26.5,1.6,41.9,1.6
				C59.5,127.4,65,127.6,69.7,127.4L69.7,127.4z" />
			</g>
			<g>
				<g>
					<path class="st1" d="M213.8,77.9c-0.1,10.5,17.4,11.5,17.8,0.2C231.9,66.8,214,60.7,213.8,77.9z" />
					<path class="st1" d="M222.9,87.1c-0.1,0-0.1,0-0.2,0c-4.9-0.1-9.8-3.3-9.7-9.2l0,0c0.1-6.7,2.6-9.5,4.8-10.7
					c2.6-1.5,6-1.2,9.1,0.6c3.6,2.2,5.8,6.1,5.7,10.3C232.3,84.3,227.4,87.1,222.9,87.1L222.9,87.1z M214.7,77.9
					c-0.1,4.7,4,7.3,8,7.4c0.1,0,0.1,0,0.2,0c3.8,0,7.6-2.2,7.8-7.2c0.1-4.1-2.4-7.2-4.8-8.7c-2.5-1.5-5.2-1.7-7.3-0.6
					C216.1,70.2,214.8,73.3,214.7,77.9L214.7,77.9L214.7,77.9z" />
				</g>
				<path class="st1" d="M222.8,81.7c0,0-0.1,0-0.1,0c-2.4-0.1-4.8-1.6-4.8-4.5c0-3.2,1.3-4.5,2.4-5.1c1.3-0.7,3-0.6,4.5,0.3
				c1.8,1.1,2.8,3,2.7,4.9C227.4,80.4,225,81.7,222.8,81.7L222.8,81.7z M222.2,73.4c-0.4,0-0.7,0.1-1,0.2c-0.9,0.5-1.4,1.8-1.4,3.6
				l0,0c0,1.8,1.5,2.7,3,2.7c1.3,0,2.9-0.6,3-2.7c0.1-1.6-0.9-2.8-1.9-3.4C223.3,73.6,222.7,73.4,222.2,73.4L222.2,73.4z
				 M218.8,77.2L218.8,77.2z" />
				<path class="st2" d="M218.8,77.2c-0.1,4.6,7.6,5,7.8,0.1S218.9,69.7,218.8,77.2z" />
				<path class="st1" d="M249.4,72.8c-0.1,0-0.2,0-0.3-0.1c-0.5-0.2-0.7-0.7-0.5-1.2l0,0c0,0,0.3-0.9,0.5-2.1
				c0.2-1.2,0.3-3.1-0.3-4.9c-0.2-0.5,0.1-1,0.6-1.1c0.5-0.2,1,0.1,1.1,0.6c0.7,2.2,0.6,4.3,0.4,5.8c-0.2,1.5-0.6,2.5-0.7,2.5
				C250.1,72.6,249.8,72.8,249.4,72.8L249.4,72.8z" />
				<path class="st1" d="M246.9,72.9c-0.1,0-0.2,0-0.2,0c-0.5-0.1-0.8-0.6-0.6-1.1l0,0c0,0,0.2-0.9,0.3-2.2c0.1-1.2,0-3.1-0.8-4.8
				c-0.2-0.4,0-1,0.5-1.2c0.5-0.2,1,0,1.2,0.4c0.9,2.1,1,4.2,0.9,5.7c-0.1,1.5-0.4,2.5-0.4,2.6C247.7,72.6,247.3,72.9,246.9,72.9
				L246.9,72.9z" />
				<path class="st1" d="M243.9,73.2c-0.1,0-0.1,0-0.2,0c-0.5-0.1-0.8-0.6-0.7-1.1c0-0.1,0.7-3.8-1.1-6.9c-0.2-0.4-0.1-1,0.3-1.2
				c0.4-0.2,1-0.1,1.2,0.3c2.1,3.7,1.3,8,1.3,8.2C244.7,72.9,244.3,73.2,243.9,73.2L243.9,73.2z" />
				<path class="st1" d="M241.4,74.2c0,0-0.1,0-0.1,0c-0.5-0.1-0.8-0.5-0.8-1l0,0c0,0,0.1-0.9,0-2.2c-0.1-1.2-0.4-3.1-1.5-4.7
				c-0.3-0.4-0.1-1,0.3-1.2c0.4-0.3,1-0.1,1.2,0.3c1.2,1.9,1.6,4.1,1.7,5.5c0.1,1.5,0,2.6,0,2.6C242.2,73.8,241.8,74.2,241.4,74.2
				L241.4,74.2z" />
				<path class="st1" d="M239.2,74L239.2,74c-0.5,0-0.9-0.4-0.9-0.9c0,0,0-0.8-0.2-1.9c-0.2-1.1-0.8-2.6-2-3.9
				c-0.3-0.4-0.3-0.9,0-1.3c0.4-0.3,0.9-0.3,1.3,0c1.5,1.6,2.1,3.4,2.4,4.7c0.3,1.3,0.3,2.3,0.3,2.3C240,73.6,239.6,74,239.2,74
				L239.2,74z" />
				<path class="st1" d="M236.8,74.8c-0.5,0-0.9-0.4-0.9-0.8c0,0-0.1-0.8-0.4-1.8c-0.4-1-1.1-2.5-2.4-3.7c-0.4-0.3-0.4-0.9-0.1-1.3
				c0.3-0.4,0.9-0.4,1.3-0.1c1.6,1.4,2.5,3.2,2.9,4.4c0.4,1.3,0.5,2.2,0.5,2.3C237.8,74.4,237.4,74.8,236.8,74.8
				C236.9,74.9,236.9,74.9,236.8,74.8L236.8,74.8z" />
				<path class="st1" d="M234.1,76.1c-0.4,0-0.8-0.3-0.9-0.7c0,0-0.7-3.3-3.4-5.3c-0.4-0.3-0.5-0.9-0.2-1.3s0.9-0.5,1.3-0.2
				c3.3,2.4,4.1,6.2,4.1,6.4c0.1,0.5-0.2,1-0.7,1.1C234.3,76.1,234.2,76.1,234.1,76.1L234.1,76.1z" />
				<g>
					<path class="st1" d="M186.6,25.6c-0.1,0.1-0.2,0.2-0.4,0.2c-16.5,3.4-30.6,8.9-34.4,23.6C148,64.3,148,91.5,153.4,98
					s20.4,20.6,34.3,21.7c13.8,1,42.3-4.8,47.1-14.2s10.2-10.4,10-19.9c-0.2-9.4,0.2-32.5-8.2-39.1c-8.4-6.6-22.9-23.1-36.9-22.5
					C188.7,24.4,186.9,25.3,186.6,25.6L186.6,25.6z" />
					<g class="st3">
						<path class="st1" d="M150.2,66.3c0,0,3.6-10.4,8.6-13.8c4.4-3,12.7-7.9,14.5-9c0.2-0.1,0.4-0.4,0.3-0.6l-0.4-10.5
						c0-0.2,0.1-0.4,0.2-0.5l6.4-6.2c0.2-0.2,0.6-0.3,0.9-0.1c1.6,1,6.4,4.5,6.7,10.2c0,0.5,0.5,0.8,0.9,0.6
						c2.7-0.9,11.3-2.9,20.5,1.9c0.1,0,0.1,0.1,0.1,0.1l2.6,2.1c0.3,0.2,0.7,0.2,1-0.1l7.4-8c0.2-0.2,0.5-0.3,0.8-0.2l14.1,6.1
						c0.2,0.1,0.3,0.2,0.4,0.4l11.2,24.6c0,0.1,0.1,0.2,0.1,0.4l-3,27.5c0,0.1,0,0.2-0.1,0.3l-5.9,9.9c0,0.1-0.1,0.2-0.2,0.2
						l-25.3,16.8c-0.1,0.1-0.2,0.1-0.3,0.1l-21,2.2c-0.1,0-0.2,0-0.3,0l-18-5.3c-0.1,0-0.2-0.1-0.2-0.1l-14.6-11.9
						c-0.1-0.1-0.1-0.1-0.2-0.2l-7.9-15c0-0.1-0.1-0.1-0.1-0.2l-2.7-11.9c0-0.1,0-0.3,0-0.4L150.2,66.3L150.2,66.3z" />
						<path class="st1" d="M180.3,25.2c0,0,6.8,3.7,7.2,10.5c0,0.5,0.5,0.8,0.9,0.6c1.4-0.4,4.2-1.2,7.9-1.2s8,0.7,12.6,3
						c0.1,0,0.1,0.1,0.1,0.1l2.6,2.1c0.3,0.2,0.7,0.2,1-0.1l7.4-8c0.2-0.2,0.5-0.3,0.8-0.2l14.1,6.1c0.2,0.1,0.3,0.2,0.4,0.4
						l11.2,24.6c0,0.1,0.1,0.2,0.1,0.4l-3,27.5c0,0.1,0,0.2-0.1,0.3l-5.9,9.9c0,0.1-0.1,0.2-0.2,0.2l-25.3,16.8
						c-0.1,0.1-0.2,0.1-0.3,0.1l-21,2.2c-0.1,0-0.2,0-0.3,0l-18-5.3c-0.1,0-0.2-0.1-0.2-0.1l-14.6-11.9c-0.1-0.1-0.1-0.1-0.2-0.2
						l-7.9-15c0-0.1-0.1-0.1-0.1-0.2l-2.7-11.9c0-0.1,0-0.3,0-0.4l3.3-9.4c0,0,3.6-10.4,8.6-13.8c4.4-3,12.7-7.9,14.5-9
						c0.2-0.1,0.4-0.4,0.3-0.6l-0.4-10.5c0-0.2,0.1-0.4,0.2-0.5L180.3,25.2 M180.3,23.4c-0.5,0-0.9,0.2-1.3,0.5l-6.8,6.6
						c-0.5,0.5-0.8,1.2-0.8,1.9l0.3,9.4c0,0.3-0.1,0.5-0.4,0.6c-2.8,1.7-9.7,5.8-13.6,8.5c-5.4,3.7-9.2,14.3-9.3,14.7l-3.3,9.4
						c-0.2,0.4-0.2,0.9-0.1,1.4l2.7,11.9l0.2,0.6l7.9,15c0.2,0.3,0.4,0.6,0.6,0.8l14.6,11.9c0.3,0.2,0.6,0.4,0.9,0.5l18.1,5.4
						c0.2,0.1,0.3,0.1,0.5,0.1c0.1,0,0.1,0,0.2,0l21.2-2.2c0.4,0,0.8-0.2,1.1-0.4l25.3-16.8c0.3-0.2,0.6-0.5,0.8-0.8l5.9-9.9
						c0.2-0.3,0.3-0.6,0.3-1l3-27.5c0-0.4,0-0.9-0.2-1.3L237,37.9c-0.3-0.6-0.7-1-1.3-1.3l-14.6-6.3c-0.2-0.1-0.5-0.1-0.7-0.1
						c-0.5,0-1,0.2-1.3,0.6l-6.6,7.1c-0.3,0.3-0.7,0.3-1,0.1l-1.3-1.1l-0.4-0.3c-4.2-2.1-8.7-3.2-13.4-3.2c-2.6,0-4.9,0.3-6.5,0.7
						c-0.4,0.1-0.8-0.2-0.8-0.6c-1.5-6.4-7.6-9.7-7.9-9.9C180.9,23.4,180.6,23.4,180.3,23.4L180.3,23.4L180.3,23.4z" />
					</g>
					<path class="st1" d="M150.2,66.3c0,0,3.6-10.4,8.6-13.8c4.4-3,12.7-7.9,14.5-9c0.2-0.1,0.4-0.4,0.3-0.6l-0.4-10.5
					c0-0.2,0.1-0.4,0.2-0.5l6.4-6.2c0.2-0.2,0.6-0.3,0.9-0.1c1.6,1,6.4,4.5,6.7,10.2c0,0.5,0.5,0.8,0.9,0.6
					c2.7-0.9,11.3-2.9,20.5,1.9c0.1,0,0.1,0.1,0.1,0.1l2.6,2.1c0.3,0.2,0.7,0.2,1-0.1l7.4-8c0.2-0.2,0.5-0.3,0.8-0.2l14.1,6.1
					c0.2,0.1,0.3,0.2,0.4,0.4l11.2,24.6c0,0.1,0.1,0.2,0.1,0.4l-3,27.5c0,0.1,0,0.2-0.1,0.3l-5.9,10c0,0.1-0.1,0.1-0.2,0.2l-24.8,19
					c-0.1,0.1-0.3,0.1-0.4,0.1h-21.5c-0.1,0-0.1,0-0.2,0l-18-5.3c-0.1,0-0.2-0.1-0.2-0.1l-14.6-11.9c-0.1-0.1-0.1-0.1-0.2-0.2
					l-7.9-15c0-0.1-0.1-0.1-0.1-0.2l-2.7-11.9c0-0.1,0-0.3,0-0.4L150.2,66.3L150.2,66.3z" />
					<path class="st1" d="M149.2,62.2c0-0.1,0.1-0.2,0.1-0.3c2.6-4.1,8.4-4.9,10.9-3.3c2.6,1.6,9.8-5.8,12.6-7.6
					c2.8-1.8,10.4,1.4,5.2,8.6c-5.2,7.2-10.8,8.8-10.8,8.8s13-4.2,16.2-2.2c3.2,2,3-6.8,6.6-10c3.6-3.2,14.4-10.2,21.5,3.4
					c0,0,0.8,2.8,5.8,3.6c5,0.8,8.8,2.8,12,7.8c2.3,3.6-1.9,17.9-4.4,25.6c-1.1,3.2-0.7,6.8,1.1,9.8c0,0,0,0.1,0,0.1l1.2,3.1
					c0.1,0.4-0.1,0.8-0.4,0.9l-32.6,10.5c-0.1,0.1-0.3,0.1-0.4,0l-29.3-10.2c-0.1-0.1-0.3-0.1-0.4-0.3L150.3,90
					c-0.1-0.1-0.1-0.2-0.1-0.2l-2.9-14.4c0-0.1,0-0.2,0-0.2L149.2,62.2L149.2,62.2z" />
					<path class="st1" d="M223.5,40.5c-2.4,0.5-2.7,1.2-2.6,1.6c0.1,0.3-0.1,0.6-0.4,0.7c-0.7,0.4-1.7,1.1-1.6,1.7
					c0.3,0.8,1.9,2.1,3.7,1.7c1.9-0.4,3.5,0.4,4.8,0.7c1,0.2,3.5-2.3,4.7-3.7c0.4-0.4,0.2-1-0.3-1.2l-7.7-2.2L223.5,40.5L223.5,40.5
					L223.5,40.5z" />
					<path class="st1" d="M176.7,39.6c0.8,1.1,3.9-1,4.8-1.7c0.2-0.1,0.3-0.3,0.3-0.5c0.1-1.2,0.3-5.4-2.4-7c-3.2-1.9-4.1,1.7-3.6,2
					s0.9,3.4,0.4,3.9S176.3,39,176.7,39.6L176.7,39.6z" />
					<path class="st4" d="M240.8,48.4l-25.5-21.8c-0.1-0.1-0.3-0.2-0.4-0.2l-39.3-1.6c-0.2,0-0.3,0-0.4,0.1l-16.4,12.2
					c-0.1,0.1-0.1,0.1-0.2,0.2l-6.7,11.9c-0.1,0.1-0.1,0.2-0.1,0.3l-0.3,5.6c0,0.8,1,1.1,1.4,0.4l1.8-3.7c0.1-0.2,0.2-0.3,0.4-0.4
					c20-6.3,47.1-6.5,65.2,9.4c13.2,11.6,12.3,30.2,10.8,39.6c0,0.2-0.2,0.4-0.4,0.5c-6.2,3.4-29.8,15.5-44,12.2
					c-16-3.7-25.8-20.8-26.2-21.6c0,0,0-0.1,0-0.1l-1.4-1.9c-0.1-0.2-0.3-0.3-0.5-0.3c-1.6-0.2-3.5-1.5-5.1-2.8
					c-0.6-0.5-1.4,0.2-1.1,0.9l5.2,11.1c0,0.1,0.1,0.1,0.1,0.2l9.7,10.3c0,0,0.1,0.1,0.1,0.1l10.2,6.1c0.1,0,0.1,0.1,0.2,0.1
					l13.2,3.8c0.1,0,0.2,0,0.3,0l13.7-1.3c0.1,0,0.1,0,0.2,0l13.2-4.5c0.1,0,0.1,0,0.2-0.1l11.6-7.4c-0.1,0.4-0.2,0.6-0.2,0.6
					s12.3-11.2,14.6-12.7c0.2-0.1,0.4-0.4,0.3-0.6c-0.4-4.8-3.4-40.5-3.7-44.1C241,48.7,240.9,48.5,240.8,48.4L240.8,48.4z" />
				</g>
				<g>
					<path class="st1" d="M230,22.8C194,0.9,162.7,24,156.9,31.4c-5.8,7.4-18.9,38.3-5.4,65.8s51.5,28.5,66.4,21.3
					c14.8-7.2,26.9-21.5,31.1-29.1C248.9,89.3,266.1,44.6,230,22.8L230,22.8z M240.1,96c-3.2,4.6-16.4,17.9-36.1,21.7
					s-39.5-4-50.9-27.1s5.6-51.9,18.1-57.8c18.9-8.8,40.1-4.4,57.6,12S240.1,96,240.1,96L240.1,96z" />
					<path class="st1" d="M197.7,123.1c-4.4,0-9-0.4-13.8-1.4c-15.5-3.3-27.3-11.9-33.3-24.1c-13.6-27.7-0.5-59,5.5-66.7
					c3.2-4.1,12.7-11.7,25.7-15.6c11.4-3.5,29.1-5.1,48.7,6.8c19,11.5,23.2,29.3,23.4,42.2c0.2,13.9-4,25-4.2,25.4c0,0,0,0.1,0,0.1
					c-4.1,7.5-16.3,22.1-31.5,29.4C213.6,121.5,206.2,123.1,197.7,123.1L197.7,123.1z M198.7,14.5c-6.3,0-11.8,1.1-16.4,2.4
					c-12.5,3.8-21.8,11.2-24.8,15c-5.8,7.4-18.5,37.9-5.3,64.8c13.7,28,51.9,27.3,65.2,20.8c14.7-7.2,26.6-21.3,30.7-28.6
					c0.3-0.9,4.2-11.7,4-24.8c-0.3-18.1-7.9-31.8-22.5-40.7l0,0C218.4,16.8,207.8,14.5,198.7,14.5L198.7,14.5z M248.9,89.3
					L248.9,89.3z M194.6,119.4c-6.9,0-13.6-1.5-19.6-4.5c-9.6-4.7-17.2-12.8-22.8-24c-4.8-9.6-5.1-21.5-0.9-33.5
					c4.1-11.6,12-22.1,19.4-25.5c9.4-4.4,19.8-5.6,29.9-3.5c10.1,2.1,20,7.5,28.7,15.7c17.6,16.6,12,50.5,11.7,51.9
					c0,0.1-0.1,0.2-0.1,0.4c-3.1,4.5-16.5,18.1-36.7,22C200.9,119.1,197.7,119.4,194.6,119.4z M190.9,29.2c-6.6,0-13.1,1.5-19.5,4.4
					c-7,3.3-14.6,13.3-18.5,24.5c-4,11.5-3.7,22.9,0.8,32.1c10.4,21,28.6,30.7,49.9,26.6c19.3-3.7,32.2-16.6,35.4-21.1
					c0.4-2.8,5-34.8-11.2-50.1C216.6,34.7,203.7,29.2,190.9,29.2L190.9,29.2z M240.1,96L240.1,96z" />
				</g>
				<polygon class="st1" points="239.9,66.6 241.4,81.7 240.6,93.4 243.1,92.4 245.9,88.5 244.5,68.2 242.1,65.3 239.9,64.9 			" />
				<path class="st1" d="M197.7,123.1c-4.4,0-9-0.4-13.8-1.4c-15.5-3.3-27.3-11.9-33.3-24.1c-13.6-27.7-0.5-59,5.5-66.7
				c3.2-4.1,12.7-11.7,25.7-15.6c11.4-3.5,29.1-5.1,48.7,6.8c19,11.5,23.2,29.3,23.4,42.2c0.2,13.9-4,25-4.2,25.4c0,0,0,0.1,0,0.1
				c-4.1,7.5-16.3,22.1-31.5,29.4C213.6,121.5,206.2,123.1,197.7,123.1L197.7,123.1z M198.7,14.5c-6.3,0-11.8,1.1-16.4,2.4
				c-12.5,3.8-21.8,11.2-24.8,15c-5.8,7.4-18.5,37.9-5.3,64.8c13.7,28,51.9,27.3,65.2,20.8c14.7-7.2,26.6-21.3,30.7-28.6
				c0.3-0.9,4.2-11.7,4-24.8c-0.3-18.1-7.9-31.8-22.5-40.7l0,0C218.4,16.8,207.8,14.5,198.7,14.5L198.7,14.5z M248.9,89.3
				L248.9,89.3z M194.6,119.4c-6.9,0-13.6-1.5-19.6-4.5c-9.6-4.7-17.2-12.8-22.8-24c-4.8-9.6-5.1-21.5-0.9-33.5
				c4.1-11.6,12-22.1,19.4-25.5c9.4-4.4,19.8-5.6,29.9-3.5c10.1,2.1,20,7.5,28.7,15.7c17.6,16.6,12,50.5,11.7,51.9
				c0,0.1-0.1,0.2-0.1,0.4c-3.1,4.5-16.5,18.1-36.7,22C200.9,119.1,197.7,119.4,194.6,119.4z M190.9,29.2c-6.6,0-13.1,1.5-19.5,4.4
				c-7,3.3-14.6,13.3-18.5,24.5c-4,11.5-3.7,22.9,0.8,32.1c10.4,21,28.6,30.7,49.9,26.6c19.3-3.7,32.2-16.6,35.4-21.1
				c0.4-2.8,5-34.8-11.2-50.1C216.6,34.7,203.7,29.2,190.9,29.2L190.9,29.2z M240.1,96L240.1,96z" />
				<path class="st1" d="M240.1,96.7c-0.2,0-0.4-0.1-0.6-0.2c-0.4-0.3-0.4-0.9-0.1-1.3l5.5-6.1c-0.1-2.2-0.5-14-1.6-22.4
				c-0.1-1-0.3-1.9-0.4-2.7c-1.4-8.2-5.2-15.2-12.3-22.8c-8.6-9.1-20.4-14.3-35.2-15.4c-20.2-1.4-31.3,7-36.2,12.1
				c-6,6.4-7.6,23.9-7.6,24.1c-0.1,0.5-0.5,0.9-1,0.8c-0.5,0-0.9-0.5-0.8-1c0.1-0.7,1.7-18.3,8.1-25.1c5.1-5.4,16.7-14.2,37.6-12.7
				c15.2,1.1,27.5,6.4,36.4,15.9c7.4,7.9,11.3,15.2,12.8,23.7c0.1,0.9,0.3,1.8,0.4,2.8c1.2,9.4,1.6,22.9,1.6,23
				c0,0.2-0.1,0.4-0.2,0.6l-5.8,6.4C240.6,96.6,240.3,96.7,240.1,96.7L240.1,96.7z" />
				<path class="st2" d="M154,54.9c0,0,5.2-13.1,9.2-16.2c4-3.1,9.8-9.9,24.1-10.3s30.8,6.8,34.1,10c3.3,3.2,12,9,14.3,15.6
				s3.5,10.8,3.5,10.8l4.4,1.3l1.6,8.8l0.7,14.3l-3.6,4l3.2,0.9l3.9-6c0,0,6.8-22.9,1.7-38.8C246,33.6,242.2,34,242.2,34
				s5.1,17.4-5.9,11.2l-12.4-11.6l-12.6-6.4l-15.9-2.4l-17.1,0.8l-14.8,7.4l-6.4,6l-2.7,6l-1.9,6.7l-1.1,6.1L154,54.9L154,54.9z" />
				<path class="st1" d="M244.2,67.3c-0.1,0-0.2,0-0.4-0.1l-4.7-2c-0.5-0.2-0.7-0.7-0.5-1.2c0.2-0.5,0.7-0.7,1.2-0.5l4.7,2
				c0.5,0.2,0.7,0.7,0.5,1.2C244.9,67.1,244.6,67.3,244.2,67.3z" />
			</g>
			<g>
				<path class="st1" d="M166.7,82.7c1.9-0.1,7.5-4,7.4-6.3c-0.1-2.3-3.2-4.1-5.9-4.3s-3.9-0.7-6,0.5c-2.1,1.2-0.1,7.2,1.9,8.4
				L166.7,82.7L166.7,82.7z" />
				<polygon class="st1" points="189.7,87.8 192.3,90.2 196,87.1 196.7,83.3 			" />
				<polygon class="st1" points="161.8,87 164.4,92.2 166.6,94.8 167.6,91.9 171.6,89.9 168.3,88.2 166.6,86.3 164.5,87.5 			" />
				<polyline class="st1" points="167.6,95.8 167,93.1 170.7,89.4 178.4,90 188.6,88 191.5,89.2 191.3,91.5 186.9,94.2 177.9,96.9 
				169.7,96.7 167.6,95.8 			" />
				<path class="st1" d="M176.6,90.8c-1.7,0-3.4-0.1-5.1-0.3c-1.9-0.3-4-2-5.1-3.1c-0.3,0.3-0.6,0.5-1.1,0.7c-1.4,0.5-3.2,0-5.2-1.4
				c-5.3-3.6-0.3-12.1-0.1-12.4c0.3-0.4,0.8-0.6,1.2-0.3c0.4,0.3,0.6,0.8,0.3,1.2c0,0.1-4.3,7.3-0.4,10c1.5,1.1,2.8,1.5,3.7,1.2
				c0.5-0.2,0.7-0.6,0.7-0.6c0.1-0.3,0.4-0.5,0.7-0.6c0.3-0.1,0.6,0,0.9,0.3c0.8,0.9,3.2,3.1,4.8,3.3c10,1.4,19.8-1.6,25.6-7.6
				c0.4-0.4,0.9-0.4,1.3,0c0.4,0.4,0.4,0.9,0,1.3C193.5,87.7,185.3,90.8,176.6,90.8L176.6,90.8z" />
				<path class="st1" d="M160.8,94.5c-0.3,0-0.6-0.2-0.8-0.4c-2.5-4.1-1.9-8.2-1.9-8.4c0.1-0.5,0.5-0.8,1-0.8c0.5,0.1,0.8,0.5,0.8,1
				c0,0.1-0.5,3.7,1.6,7.2c0.3,0.4,0.1,1-0.3,1.2C161.1,94.4,161,94.5,160.8,94.5L160.8,94.5z" />
				<path class="st1" d="M166.9,95.8L166.9,95.8c-0.5,0-0.9-0.4-0.9-0.9c0-0.1,0.1-5.8,8.1-6c0.5,0,0.9,0.4,0.9,0.9
				c0,0.5-0.4,0.9-0.9,0.9c-6.2,0.2-6.3,4.1-6.4,4.2C167.8,95.4,167.4,95.8,166.9,95.8L166.9,95.8z" />
				<path class="st1" d="M191.8,91.3C191.8,91.3,191.7,91.3,191.8,91.3c-0.6-0.1-0.9-0.5-0.9-1c0-0.3-0.1-0.4-0.2-0.6
				c-0.8-0.7-3.4-0.4-4.9-0.1c-0.5,0.1-1-0.2-1.1-0.7c-0.1-0.5,0.2-1,0.7-1.1c0.8-0.2,4.8-1,6.6,0.5c0.4,0.4,0.9,1,0.8,2.1
				C192.7,91,192.3,91.3,191.8,91.3L191.8,91.3z" />
				<path class="st1" d="M173.8,98.1c-0.5,0-1.1,0-1.6-0.1c-9.6-0.6-10.6-10.9-10.6-11c0-0.5,0.3-0.9,0.8-1c0.5,0,0.9,0.3,1,0.8
				c0,0.4,0.9,8.8,8.9,9.3c8.6,0.6,22-4.1,24.6-14.4c0.1-0.5,0.6-0.8,1.1-0.6c0.5,0.1,0.8,0.6,0.6,1.1
				C195.8,93.4,182.7,98.1,173.8,98.1L173.8,98.1z" />
				<g>
					<path class="st1" d="M194.6,70.1c0,0,2.5,4.4,9.3,0.3c6.8-4.1,0.2-9.8-4.5-8.9S192.6,67.1,194.6,70.1L194.6,70.1z" />
					<path class="st1" d="M198.6,73.1c-0.6,0-1.1-0.1-1.6-0.2c-2.1-0.5-3.1-2-3.2-2.3c-1.1-1.6-1.2-3.6-0.4-5.4
					c0.9-2.3,3.1-3.9,5.8-4.5c3.2-0.6,7.1,1.3,8.2,4.1c0.4,1.1,1,3.9-3,6.4C202.2,72.4,200.3,73.1,198.6,73.1L198.6,73.1z
					 M195.3,69.7c0,0.1,0.7,1.1,2.2,1.5c1.6,0.4,3.6-0.1,5.8-1.5c1.4-0.9,3-2.3,2.3-4.2c-0.8-2-3.8-3.5-6.2-3
					c-2.1,0.4-3.8,1.7-4.5,3.4C194.5,67.2,194.6,68.5,195.3,69.7C195.3,69.6,195.3,69.6,195.3,69.7L195.3,69.7z" />
				</g>
				<path class="st1" d="M206.9,65.4l-1.9-2.7c0,0-9.9-0.8-7.7,8.5l1.3,1.2l4.3-1.3l3.4-2.7L206.9,65.4L206.9,65.4z" />
				<path class="st5" d="M201.6,93.6c3.8,0.1,7.3-0.6,10.6-2.4c3.4-1.1,6.4-3,8.9-5.7c2.7-2.5,4.6-5.4,5.7-8.9
				c1.7-3.3,2.5-6.8,2.4-10.6l-1-7.3c-1.3-4.7-3.7-8.7-7.1-12.1l-5.6-4.3c-4.3-2.5-8.9-3.7-13.9-3.8c-3.8-0.1-7.3,0.6-10.6,2.4
				c-3.4,1.1-6.4,3-8.9,5.7c-2.7,2.5-4.6,5.4-5.7,8.9c-1.7,3.3-2.5,6.8-2.4,10.6l1,7.3c1.3,4.7,3.7,8.7,7.1,12.1l5.6,4.3
				C192,92.3,196.6,93.6,201.6,93.6L201.6,93.6z" />
				<g>
					<path class="st1" d="M164.9,65c0,0,2,3.7,7.3,0.3c5.4-3.4,0.2-8.1-3.6-7.3C164.9,58.7,163.3,62.5,164.9,65z" />
					<path class="st1" d="M168.1,67.6c-0.4,0-0.9-0.1-1.3-0.2c-1.7-0.4-2.6-1.7-2.7-2c-0.9-1.4-1-3.1-0.3-4.7
					c0.8-1.9,2.5-3.2,4.7-3.7c2.6-0.5,5.7,1.1,6.7,3.4c0.4,1,0.9,3.4-2.4,5.5C171,67.1,169.5,67.6,168.1,67.6L168.1,67.6z
					 M165.7,64.6c0,0,0.5,0.9,1.6,1.1c1.2,0.3,2.7-0.1,4.4-1.2c1.1-0.7,2.3-1.9,1.7-3.3c-0.6-1.6-2.9-2.7-4.6-2.3
					c-1.6,0.3-2.8,1.3-3.4,2.6C165,62.5,165.1,63.6,165.7,64.6C165.6,64.5,165.7,64.5,165.7,64.6L165.7,64.6z" />
				</g>
				<path class="st1" d="M174.7,61.1l-1.5-2.2c0,0-7.8-0.6-6.1,7l1,1l3.4-1.1l2.7-2.2L174.7,61.1L174.7,61.1z" />
				<path class="st5" d="M170.4,89.2c3.8,0.1,7.3-0.6,10.6-2.4c3.4-1.1,6.4-3,8.9-5.7c2.7-2.5,4.6-5.4,5.7-8.9
				c1.7-3.3,2.5-6.8,2.4-10.6l-1-7.3c-1.3-4.7-3.7-8.7-7.1-12.1l-5.6-4.3c-4.3-2.5-8.9-3.7-13.9-3.8c-3.8-0.1-7.3,0.6-10.6,2.4
				c-3.4,1.1-6.4,3-8.9,5.7c-2.7,2.5-4.6,5.4-5.7,8.9c-1.7,3.3-2.5,6.8-2.4,10.6l1,7.3c1.3,4.7,3.7,8.7,7.1,12.1l5.6,4.3
				C160.8,87.9,165.5,89.2,170.4,89.2L170.4,89.2z" />
				<g>
					<g>
						<g>
							<path class="st6" d="M213.8,77.9c-0.1,10.5,17.4,11.5,17.8,0.2C231.9,66.8,214,60.7,213.8,77.9z" />
							<path class="st7" d="M222.9,87.1c-0.1,0-0.1,0-0.2,0c-4.9-0.1-9.8-3.3-9.7-9.2l0,0c0.1-6.7,2.6-9.5,4.8-10.7
							c2.6-1.5,6-1.2,9.1,0.6c3.6,2.2,5.8,6.1,5.7,10.3C232.3,84.3,227.4,87.1,222.9,87.1L222.9,87.1z M214.7,77.9
							c-0.1,4.7,4,7.3,8,7.4c0.1,0,0.1,0,0.2,0c3.8,0,7.6-2.2,7.8-7.2c0.1-4.1-2.4-7.2-4.8-8.7c-2.5-1.5-5.2-1.7-7.3-0.6
							C216.1,70.2,214.8,73.3,214.7,77.9L214.7,77.9L214.7,77.9z" />
						</g>
						<path class="st7" d="M222.8,81.7c0,0-0.1,0-0.1,0c-2.4-0.1-4.8-1.6-4.8-4.5c0-3.2,1.3-4.5,2.4-5.1c1.3-0.7,3-0.6,4.5,0.3
						c1.8,1.1,2.8,3,2.7,4.9C227.4,80.4,225,81.7,222.8,81.7L222.8,81.7z M222.2,73.4c-0.4,0-0.7,0.1-1,0.2
						c-0.9,0.5-1.4,1.8-1.4,3.6l0,0c0,1.8,1.5,2.7,3,2.7c1.3,0,2.9-0.6,3-2.7c0.1-1.6-0.9-2.8-1.9-3.4
						C223.3,73.6,222.7,73.4,222.2,73.4L222.2,73.4z M218.8,77.2L218.8,77.2z" />
						<path class="st8" d="M218.8,77.2c-0.1,4.6,7.6,5,7.8,0.1S218.9,69.7,218.8,77.2z" />
						<path class="st7" d="M249.4,72.8c-0.1,0-0.2,0-0.3-0.1c-0.5-0.2-0.7-0.7-0.5-1.2l0,0c0,0,0.3-0.9,0.5-2.1
						c0.2-1.2,0.3-3.1-0.3-4.9c-0.2-0.5,0.1-1,0.6-1.1c0.5-0.2,1,0.1,1.1,0.6c0.7,2.2,0.6,4.3,0.4,5.8c-0.2,1.5-0.6,2.5-0.7,2.5
						C250.1,72.6,249.8,72.8,249.4,72.8L249.4,72.8z" />
						<path class="st7" d="M246.9,72.9c-0.1,0-0.2,0-0.2,0c-0.5-0.1-0.8-0.6-0.6-1.1l0,0c0,0,0.2-0.9,0.3-2.2c0.1-1.2,0-3.1-0.8-4.8
						c-0.2-0.4,0-1,0.5-1.2c0.5-0.2,1,0,1.2,0.4c0.9,2.1,1,4.2,0.9,5.7c-0.1,1.5-0.4,2.5-0.4,2.6C247.7,72.6,247.3,72.9,246.9,72.9
						L246.9,72.9z" />
						<path class="st7" d="M243.9,73.2c-0.1,0-0.1,0-0.2,0c-0.5-0.1-0.8-0.6-0.7-1.1c0-0.1,0.7-3.8-1.1-6.9c-0.2-0.4-0.1-1,0.3-1.2
						c0.4-0.2,1-0.1,1.2,0.3c2.1,3.7,1.3,8,1.3,8.2C244.7,72.9,244.3,73.2,243.9,73.2L243.9,73.2z" />
						<path class="st7" d="M241.4,74.2c0,0-0.1,0-0.1,0c-0.5-0.1-0.8-0.5-0.8-1l0,0c0,0,0.1-0.9,0-2.2c-0.1-1.2-0.4-3.1-1.5-4.7
						c-0.3-0.4-0.1-1,0.3-1.2c0.4-0.3,1-0.1,1.2,0.3c1.2,1.9,1.6,4.1,1.7,5.5c0.1,1.5,0,2.6,0,2.6C242.2,73.8,241.8,74.2,241.4,74.2
						L241.4,74.2z" />
						<path class="st7" d="M239.2,74L239.2,74c-0.5,0-0.9-0.4-0.9-0.9c0,0,0-0.8-0.2-1.9c-0.2-1.1-0.8-2.6-2-3.9
						c-0.3-0.4-0.3-0.9,0-1.3c0.4-0.3,0.9-0.3,1.3,0c1.5,1.6,2.1,3.4,2.4,4.7c0.3,1.3,0.3,2.3,0.3,2.3C240,73.6,239.6,74,239.2,74
						L239.2,74z" />
						<path class="st7" d="M236.8,74.8c-0.5,0-0.9-0.4-0.9-0.8c0,0-0.1-0.8-0.4-1.8c-0.4-1-1.1-2.5-2.4-3.7c-0.4-0.3-0.4-0.9-0.1-1.3
						c0.3-0.4,0.9-0.4,1.3-0.1c1.6,1.4,2.5,3.2,2.9,4.4c0.4,1.3,0.5,2.2,0.5,2.3C237.8,74.4,237.4,74.8,236.8,74.8
						C236.9,74.9,236.9,74.9,236.8,74.8L236.8,74.8z" />
						<path class="st7" d="M234.1,76.1c-0.4,0-0.8-0.3-0.9-0.7c0,0-0.7-3.3-3.4-5.3c-0.4-0.3-0.5-0.9-0.2-1.3s0.9-0.5,1.3-0.2
						c3.3,2.4,4.1,6.2,4.1,6.4c0.1,0.5-0.2,1-0.7,1.1C234.3,76.1,234.2,76.1,234.1,76.1L234.1,76.1z" />
						<g>
							<path class="st9" d="M186.5,25.8c-16.6,3.4-30.9,8.8-34.7,23.7C148,64.3,148,91.5,153.4,98s20.4,20.6,34.3,21.7
							c13.8,1,42.3-4.8,47.1-14.2s10.2-10.4,10-19.9c-0.2-9.4,0.2-32.5-8.2-39.1c-8.4-6.6-22.9-23.1-36.9-22.5
							S186.5,25.8,186.5,25.8z" />
							<g class="st3">
								<path class="st10" d="M150.2,66.3c0,0,3.6-10.4,8.6-13.8c5-3.4,14.8-9.2,14.8-9.2L173.3,32l7-6.8c0,0,7.4,4,7.2,11.4
								c0,0,10.2-4.2,21.5,1.6l3.2,2.6l8.2-8.8l14.8,6.4l11.4,25.1l-3,27.9l-6,10.2l-25.6,17l-21.4,2.2l-18.2-5.4l-14.8-12l-8-15.2
								l-2.8-12.2L150.2,66.3L150.2,66.3z" />
								<path class="st7" d="M180.3,25.2c0,0,7.4,4,7.2,11.4c0,0,3.6-1.5,8.8-1.5c3.6,0,8,0.7,12.6,3.1l3.2,2.6l8.2-8.8l14.8,6.4
								l11.4,25.1l-3,27.9l-6,10.2l-25.6,17l-21.4,2.2l-18.2-5.4l-14.8-12l-8-15.2l-2.8-12.2l3.4-9.6c0,0,3.6-10.4,8.6-13.8
								c5-3.4,14.8-9.2,14.8-9.2L173.3,32L180.3,25.2 M180.3,23.4c-0.5,0-0.9,0.2-1.3,0.5l-7,6.8c-0.4,0.4-0.6,0.9-0.6,1.4l0.4,10.2
								c-2.6,1.5-9.9,5.9-14,8.7c-5.4,3.7-9.2,14.3-9.3,14.7l-3.4,9.6c-0.1,0.3-0.1,0.7-0.1,1l2.8,12.2c0,0.1,0.1,0.3,0.2,0.4
								l8,15.2c0.1,0.2,0.3,0.4,0.5,0.6l14.8,12c0.2,0.1,0.4,0.3,0.6,0.3l18.2,5.4c0.2,0.1,0.3,0.1,0.5,0.1c0.1,0,0.1,0,0.2,0
								l21.4-2.2c0.3,0,0.6-0.1,0.8-0.3l25.6-17c0.2-0.1,0.4-0.4,0.6-0.6l6-10.2c0.1-0.2,0.2-0.5,0.2-0.7l3-27.9
								c0-0.3,0-0.6-0.1-0.9l-11.4-25.1c-0.2-0.4-0.5-0.7-0.9-0.9l-14.8-6.4c-0.2-0.1-0.5-0.1-0.7-0.1c-0.5,0-1,0.2-1.3,0.6
								l-7.1,7.6l-1.9-1.5c-0.1-0.1-0.2-0.1-0.3-0.2c-4.2-2.2-8.7-3.3-13.5-3.3c-3,0-5.5,0.5-7.2,0.9c-1.2-6.9-7.7-10.5-8-10.6
								C180.9,23.5,180.6,23.4,180.3,23.4L180.3,23.4L180.3,23.4z" />
							</g>
							<path class="st10" d="M150.2,66.3c0,0,3.6-10.4,8.6-13.8c5-3.4,14.8-9.2,14.8-9.2L173.3,32l7-6.8c0,0,7.4,4,7.2,11.4
							c0,0,10.2-4.2,21.5,1.6l3.2,2.6l8.2-8.8l14.8,6.4l11.4,25.1l-3,27.9l-6,10.2l-25.1,19.2h-21.9l-18.2-5.4l-14.8-12l-8-15.2
							l-2.8-12.2L150.2,66.3L150.2,66.3z" />
							<path class="st11" d="M149.2,62.1c2.6-4.2,8.4-5,11-3.4c2.6,1.6,9.8-5.8,12.6-7.6c2.8-1.8,10.4,1.4,5.2,8.6
							c-5.2,7.2-10.8,8.8-10.8,8.8s13-4.2,16.2-2.2c3.2,2,3-6.8,6.6-10c3.6-3.2,14.4-10.2,21.5,3.4c0,0,0.8,2.8,5.8,3.6
							c5,0.8,8.8,2.8,12,7.8c2.3,3.6-1.9,17.9-4.4,25.6c-1.1,3.3-0.7,6.8,1.1,9.8l1.5,3.9l-33.6,10.8l-29.8-10.4l-14-20.9l-3-14.6
							L149.2,62.1L149.2,62.1z" />
							<path d="M223.5,40.5c-3.7,0.8-2.4,2-2.4,2s-2.4,1.2-2.1,2s1.9,2.1,3.7,1.7c1.9-0.4,3.5,0.4,4.8,0.7c1.3,0.3,5.5-4.6,5.5-4.6
							l-8.8-2.5L223.5,40.5L223.5,40.5L223.5,40.5z" />
							<path d="M176.7,39.6c0.9,1.4,5.1-1.9,5.1-1.9s0.8-5.5-2.4-7.4c-3.2-1.9-4.1,1.7-3.6,2s0.9,3.4,0.4,3.9S176.3,39,176.7,39.6
							L176.7,39.6z" />
							<path class="st12" d="M241,48.6l-25.9-22.2l-39.8-1.6l-16.7,12.4l-6.8,12.2l-0.5,9.4l3.5-7.2c20.1-6.4,47.3-6.7,65.5,9.4
							c13.3,11.8,12.3,30.7,10.8,40c-5.7,3.1-29.9,15.7-44.3,12.4c-16.4-3.8-26.3-21.7-26.3-21.7l-1.6-2.2c-3,0-8-5.2-8-5.2
							l6.7,14.4l9.8,10.4l10.3,6.2l13.4,3.8l13.9-1.3l13.3-4.5l11.6-7.5c-0.1,0.4-0.2,0.6-0.2,0.6s14.9-13.6,15-12.8
							C244.6,92.7,241,48.6,241,48.6L241,48.6z" />
						</g>
						<g>
							<path class="st13" d="M230,22.8C194,0.9,162.7,24,156.9,31.4c-5.8,7.4-18.9,38.3-5.4,65.8s51.5,28.5,66.4,21.3
							c14.8-7.2,26.9-21.5,31.1-29.1C248.9,89.3,266.1,44.6,230,22.8L230,22.8z M240.1,96c-3.2,4.6-16.4,17.9-36.1,21.7
							s-39.5-4-50.9-27.1s5.6-51.9,18.1-57.8c18.9-8.8,40.1-4.4,57.6,12S240.1,96,240.1,96L240.1,96z" />
							<path class="st7" d="M197.7,123.1c-4.4,0-9-0.4-13.8-1.4c-15.5-3.3-27.3-11.9-33.3-24.1c-13.6-27.7-0.5-59,5.5-66.7
							c3.2-4.1,12.7-11.7,25.7-15.6c11.4-3.5,29.1-5.1,48.7,6.8c19,11.5,23.2,29.3,23.4,42.2c0.2,13.9-4,25-4.2,25.4
							c0,0,0,0.1,0,0.1c-4.1,7.5-16.3,22.1-31.5,29.4C213.6,121.5,206.2,123.1,197.7,123.1L197.7,123.1z M198.7,14.5
							c-6.3,0-11.8,1.1-16.4,2.4c-12.5,3.8-21.8,11.2-24.8,15c-5.8,7.4-18.5,37.9-5.3,64.8c13.7,28,51.9,27.3,65.2,20.8
							c14.7-7.2,26.6-21.3,30.7-28.6c0.3-0.9,4.2-11.7,4-24.8c-0.3-18.1-7.9-31.8-22.5-40.7l0,0C218.4,16.8,207.8,14.5,198.7,14.5
							L198.7,14.5z M248.9,89.3L248.9,89.3z M194.6,119.4c-6.9,0-13.6-1.5-19.6-4.5c-9.6-4.7-17.2-12.8-22.8-24
							c-4.8-9.6-5.1-21.5-0.9-33.5c4.1-11.6,12-22.1,19.4-25.5c9.4-4.4,19.8-5.6,29.9-3.5c10.1,2.1,20,7.5,28.7,15.7
							c17.6,16.6,12,50.5,11.7,51.9c0,0.1-0.1,0.2-0.1,0.4c-3.1,4.5-16.5,18.1-36.7,22C200.9,119.1,197.7,119.4,194.6,119.4z
							 M190.9,29.2c-6.6,0-13.1,1.5-19.5,4.4c-7,3.3-14.6,13.3-18.5,24.5c-4,11.5-3.7,22.9,0.8,32.1c10.4,21,28.6,30.7,49.9,26.6
							c19.3-3.7,32.2-16.6,35.4-21.1c0.4-2.8,5-34.8-11.2-50.1C216.6,34.7,203.7,29.2,190.9,29.2L190.9,29.2z M240.1,96L240.1,96z" />
						</g>
						<polygon class="st14" points="239.9,66.6 241.4,81.7 240.6,93.4 243.1,92.4 245.9,88.5 244.5,68.2 242.1,65.3 239.9,64.9 					
						" />
						<path class="st7" d="M197.7,123.1c-4.4,0-9-0.4-13.8-1.4c-15.5-3.3-27.3-11.9-33.3-24.1c-13.6-27.7-0.5-59,5.5-66.7
						c3.2-4.1,12.7-11.7,25.7-15.6c11.4-3.5,29.1-5.1,48.7,6.8c19,11.5,23.2,29.3,23.4,42.2c0.2,13.9-4,25-4.2,25.4c0,0,0,0.1,0,0.1
						c-4.1,7.5-16.3,22.1-31.5,29.4C213.6,121.5,206.2,123.1,197.7,123.1L197.7,123.1z M198.7,14.5c-6.3,0-11.8,1.1-16.4,2.4
						c-12.5,3.8-21.8,11.2-24.8,15c-5.8,7.4-18.5,37.9-5.3,64.8c13.7,28,51.9,27.3,65.2,20.8c14.7-7.2,26.6-21.3,30.7-28.6
						c0.3-0.9,4.2-11.7,4-24.8c-0.3-18.1-7.9-31.8-22.5-40.7l0,0C218.4,16.8,207.8,14.5,198.7,14.5L198.7,14.5z M248.9,89.3
						L248.9,89.3z M194.6,119.4c-6.9,0-13.6-1.5-19.6-4.5c-9.6-4.7-17.2-12.8-22.8-24c-4.8-9.6-5.1-21.5-0.9-33.5
						c4.1-11.6,12-22.1,19.4-25.5c9.4-4.4,19.8-5.6,29.9-3.5c10.1,2.1,20,7.5,28.7,15.7c17.6,16.6,12,50.5,11.7,51.9
						c0,0.1-0.1,0.2-0.1,0.4c-3.1,4.5-16.5,18.1-36.7,22C200.9,119.1,197.7,119.4,194.6,119.4z M190.9,29.2
						c-6.6,0-13.1,1.5-19.5,4.4c-7,3.3-14.6,13.3-18.5,24.5c-4,11.5-3.7,22.9,0.8,32.1c10.4,21,28.6,30.7,49.9,26.6
						c19.3-3.7,32.2-16.6,35.4-21.1c0.4-2.8,5-34.8-11.2-50.1C216.6,34.7,203.7,29.2,190.9,29.2L190.9,29.2z M240.1,96L240.1,96z" />
						<path class="st7" d="M240.1,96.7c-0.2,0-0.4-0.1-0.6-0.2c-0.4-0.3-0.4-0.9-0.1-1.3l5.5-6.1c-0.1-2.2-0.5-14-1.6-22.4
						c-0.1-1-0.3-1.9-0.4-2.7c-1.4-8.2-5.2-15.2-12.3-22.8c-8.6-9.1-20.4-14.3-35.2-15.4c-20.2-1.4-31.3,7-36.2,12.1
						c-6,6.4-7.6,23.9-7.6,24.1c-0.1,0.5-0.5,0.9-1,0.8c-0.5,0-0.9-0.5-0.8-1c0.1-0.7,1.7-18.3,8.1-25.1
						c5.1-5.4,16.7-14.2,37.6-12.7c15.2,1.1,27.5,6.4,36.4,15.9c7.4,7.9,11.3,15.2,12.8,23.7c0.1,0.9,0.3,1.8,0.4,2.8
						c1.2,9.4,1.6,22.9,1.6,23c0,0.2-0.1,0.4-0.2,0.6l-5.8,6.4C240.6,96.6,240.3,96.7,240.1,96.7L240.1,96.7z" />
						<path class="st8" d="M154,54.9c0,0,5.2-13.1,9.2-16.2c4-3.1,9.8-9.9,24.1-10.3s30.8,6.8,34.1,10c3.3,3.2,12,9,14.3,15.6
						s3.5,10.8,3.5,10.8l4.4,1.3l1.6,8.8l0.7,14.3l-3.6,4l3.2,0.9l3.9-6c0,0,6.8-22.9,1.7-38.8C246,33.6,242.2,34,242.2,34
						s5.1,17.4-5.9,11.2l-12.4-11.6l-12.6-6.4l-15.9-2.4l-17.1,0.8l-14.8,7.4l-6.4,6l-2.7,6l-1.9,6.7l-1.1,6.1L154,54.9L154,54.9z" />
						<path class="st7" d="M244.2,67.3c-0.1,0-0.2,0-0.4-0.1l-4.7-2c-0.5-0.2-0.7-0.7-0.5-1.2c0.2-0.5,0.7-0.7,1.2-0.5l4.7,2
						c0.5,0.2,0.7,0.7,0.5,1.2C244.9,67.1,244.6,67.3,244.2,67.3z" />
					</g>
					<g>
						<path class="st7" d="M166.7,82.7c1.9-0.1,7.5-4,7.4-6.3c-0.1-2.3-3.2-4.1-5.9-4.3s-3.9-0.7-6,0.5c-2.1,1.2-0.1,7.2,1.9,8.4
						L166.7,82.7L166.7,82.7z" />
						<polygon class="st15" points="189.7,87.8 192.3,90.2 196,87.1 196.7,83.3 					" />
						<polygon class="st15" points="161.8,87 164.4,92.2 166.6,94.8 167.6,91.9 171.6,89.9 168.3,88.2 166.6,86.3 164.5,87.5 					
						" />
						<polyline class="st16" points="167.6,95.8 167,93.1 170.7,89.4 178.4,90 188.6,88 191.5,89.2 191.3,91.5 186.9,94.2 
						177.9,96.9 169.7,96.7 167.6,95.8 					" />
						<path class="st7" d="M176.6,90.8c-1.7,0-3.4-0.1-5.1-0.3c-1.9-0.3-4-2-5.1-3.1c-0.3,0.3-0.6,0.5-1.1,0.7
						c-1.4,0.5-3.2,0-5.2-1.4c-5.3-3.6-0.3-12.1-0.1-12.4c0.3-0.4,0.8-0.6,1.2-0.3c0.4,0.3,0.6,0.8,0.3,1.2c0,0.1-4.3,7.3-0.4,10
						c1.5,1.1,2.8,1.5,3.7,1.2c0.5-0.2,0.7-0.6,0.7-0.6c0.1-0.3,0.4-0.5,0.7-0.6c0.3-0.1,0.6,0,0.9,0.3c0.8,0.9,3.2,3.1,4.8,3.3
						c10,1.4,19.8-1.6,25.6-7.6c0.4-0.4,0.9-0.4,1.3,0c0.4,0.4,0.4,0.9,0,1.3C193.5,87.7,185.3,90.8,176.6,90.8L176.6,90.8z" />
						<path class="st7" d="M160.8,94.5c-0.3,0-0.6-0.2-0.8-0.4c-2.5-4.1-1.9-8.2-1.9-8.4c0.1-0.5,0.5-0.8,1-0.8
						c0.5,0.1,0.8,0.5,0.8,1c0,0.1-0.5,3.7,1.6,7.2c0.3,0.4,0.1,1-0.3,1.2C161.1,94.4,161,94.5,160.8,94.5L160.8,94.5z" />
						<path class="st7" d="M166.9,95.8L166.9,95.8c-0.5,0-0.9-0.4-0.9-0.9c0-0.1,0.1-5.8,8.1-6c0.5,0,0.9,0.4,0.9,0.9
						c0,0.5-0.4,0.9-0.9,0.9c-6.2,0.2-6.3,4.1-6.4,4.2C167.8,95.4,167.4,95.8,166.9,95.8L166.9,95.8z" />
						<path class="st7" d="M191.8,91.3C191.8,91.3,191.7,91.3,191.8,91.3c-0.6-0.1-0.9-0.5-0.9-1c0-0.3-0.1-0.4-0.2-0.6
						c-0.8-0.7-3.4-0.4-4.9-0.1c-0.5,0.1-1-0.2-1.1-0.7c-0.1-0.5,0.2-1,0.7-1.1c0.8-0.2,4.8-1,6.6,0.5c0.4,0.4,0.9,1,0.8,2.1
						C192.7,91,192.3,91.3,191.8,91.3L191.8,91.3z" />
						<path class="st7" d="M173.8,98.1c-0.5,0-1.1,0-1.6-0.1c-9.6-0.6-10.6-10.9-10.6-11c0-0.5,0.3-0.9,0.8-1c0.5,0,0.9,0.3,1,0.8
						c0,0.4,0.9,8.8,8.9,9.3c8.6,0.6,22-4.1,24.6-14.4c0.1-0.5,0.6-0.8,1.1-0.6c0.5,0.1,0.8,0.6,0.6,1.1
						C195.8,93.4,182.7,98.1,173.8,98.1L173.8,98.1z" />
						<g>
							<path class="st13" d="M194.6,70.1c0,0,2.5,4.4,9.3,0.3c6.8-4.1,0.2-9.8-4.5-8.9S192.6,67.1,194.6,70.1L194.6,70.1z" />
							<path class="st7" d="M198.6,73.1c-0.6,0-1.1-0.1-1.6-0.2c-2.1-0.5-3.1-2-3.2-2.3c-1.1-1.6-1.2-3.6-0.4-5.4
							c0.9-2.3,3.1-3.9,5.8-4.5c3.2-0.6,7.1,1.3,8.2,4.1c0.4,1.1,1,3.9-3,6.4C202.2,72.4,200.3,73.1,198.6,73.1L198.6,73.1z
							 M195.3,69.7c0,0.1,0.7,1.1,2.2,1.5c1.6,0.4,3.6-0.1,5.8-1.5c1.4-0.9,3-2.3,2.3-4.2c-0.8-2-3.8-3.5-6.2-3
							c-2.1,0.4-3.8,1.7-4.5,3.4C194.5,67.2,194.6,68.5,195.3,69.7C195.3,69.6,195.3,69.6,195.3,69.7L195.3,69.7z" />
						</g>
						<path class="st7" d="M206.9,65.4l-1.9-2.7c0,0-9.9-0.8-7.7,8.5l1.3,1.2l4.3-1.3l3.4-2.7L206.9,65.4L206.9,65.4z" />
						<path class="st17" d="M201.6,66.8c1,0,1-1.5,0-1.5S200.6,66.8,201.6,66.8L201.6,66.8z" />
						<g>
							<path class="st13" d="M164.9,65c0,0,2,3.7,7.3,0.3c5.4-3.4,0.2-8.1-3.6-7.3C164.9,58.7,163.3,62.5,164.9,65z" />
							<path class="st7" d="M168.1,67.6c-0.4,0-0.9-0.1-1.3-0.2c-1.7-0.4-2.6-1.7-2.7-2c-0.9-1.4-1-3.1-0.3-4.7
							c0.8-1.9,2.5-3.2,4.7-3.7c2.6-0.5,5.7,1.1,6.7,3.4c0.4,1,0.9,3.4-2.4,5.5C171,67.1,169.5,67.6,168.1,67.6L168.1,67.6z
							 M165.7,64.6c0,0,0.5,0.9,1.6,1.1c1.2,0.3,2.7-0.1,4.4-1.2c1.1-0.7,2.3-1.9,1.7-3.3c-0.6-1.6-2.9-2.7-4.6-2.3
							c-1.6,0.3-2.8,1.3-3.4,2.6C165,62.5,165.1,63.6,165.7,64.6C165.6,64.5,165.7,64.5,165.7,64.6L165.7,64.6z" />
						</g>
						<path class="st7" d="M174.7,61.1l-1.5-2.2c0,0-7.8-0.6-6.1,7l1,1l3.4-1.1l2.7-2.2L174.7,61.1L174.7,61.1z" />
						<path class="st17" d="M170.4,62.4c1,0,1-1.5,0-1.5S169.5,62.4,170.4,62.4L170.4,62.4z" />
					</g>
				</g>
			</g>
			<polygon class="st5" points="54.2,214.1 57.2,229 62.4,215 		" />
			<polygon class="st5" points="113.9,224 117,238.9 122.1,224.9 		" />
		</g>
	</g>
</svg>
