<?xml version="1.0" encoding="UTF-8"?><svg xmlns="http://www.w3.org/2000/svg" viewBox="0 0 527.59 525.35"><defs><style>.n{fill:#fff;}.o{fill:#d09d35;}.p{fill:#3a3636;}.q{fill:#33030f;}.r,.s,.t,.u{fill:none;stroke:#e4ce2e;stroke-linecap:round;stroke-linejoin:round;}.r,.s,.u{stroke-width:11px;}.v{opacity:.54;}.w{fill:#ae3d3e;}.x{fill:#141216;}.s,.y{opacity:.32;}.a`{fill:#562f0d;}.y,.aa,.ab{fill:#010203;}.ac{fill:#e4ce2e;}.ad{fill:#e4d98f;}.ae{fill:#862d33;}.t{stroke-width:6px;}.af{fill:#ecebe5;}.ab,.u{opacity:.31;}</style></defs><g id="a"/><g id="b"><g id="c"/><g id="d"/><g id="e"><g id="f"/><g id="g"/><g id="h"/><g id="i"/></g><g id="j"/><g id="k"/><g id="l"/><g id="m"/><g><rect class="aa" x="-2.9" y="-4.39" width="540.67" height="536.67"/><g><path class="t" d="M324.28,255.59c13.72,0,25.68-4.39,35.89-13.18,10.06-8.74,16.75-20.38,20.07-34.94,2.93-1.95,4.39-4.71,4.39-8.28,0-2.78-.99-5.13-2.97-7.03s-4.43-2.86-7.36-2.86c-13.28,0-24.9,.83-34.86,2.49-17.68,2.98-26.51,8.2-26.51,15.67,0,2.54,.9,4.81,2.71,6.81,2,2.25,4.52,3.37,7.54,3.37,1.51,0,3.03-.34,4.54-1.03,8.4-3.76,18.26-6.08,29.59-6.96-2.88,8.59-7.32,15.14-13.33,19.63-5.66,4.25-12.23,6.37-19.7,6.37s-12.18-1.54-14.72-4.61c-2.39-2.93-3.59-8.47-3.59-16.63,0-16.06,5.44-30.98,16.33-44.75,7.47-9.47,13.4-14.21,17.8-14.21,4.15,0,8.73,1.38,13.73,4.14,5,2.76,8.24,4.14,9.71,4.14,2.93,0,5.39-1.04,7.4-3.11,2-2.07,3-4.43,3-7.07,0-4.59-4.83-8.91-14.5-12.96-8.16-3.42-14.6-5.13-19.34-5.13-7.76,0-15.04,2.86-21.83,8.57-9.67,8.16-17.58,18.8-23.73,31.93-6.15,13.14-9.23,25.95-9.23,38.45,0,13.72,3.25,24.01,9.74,30.87s16.24,10.29,29.22,10.29Z"/><path class="t" d="M394.29,220.58c0,15.77,2.66,26.03,7.98,30.76,4.83,4.3,15.21,6.45,31.13,6.45s53.69-.99,58.58-1.92c5.71-1.08,8.57-4.35,8.57-9.81,0-3.27-1.15-5.81-3.44-7.62-2-1.61-4.42-2.42-7.25-2.42-.93,0-2.34,.15-4.25,.44s-3.34,.44-4.32,.44c-3.03,0-35.77,.6-41.88,.75s-10.67,.22-13.7,.22c-5.62,0-8.69-.32-9.23-.95-1.12-1.32-1.69-6.76-1.69-16.33,0-3.81,.17-8.81,.51-15.01,13.96-1.12,24.41-2.08,31.35-2.86,7.76-.68,13.6-1.17,17.5-1.46,6.2-.78,9.3-4.08,9.3-9.89,0-3.03-1.03-5.46-3.08-7.29-2.05-1.83-4.52-2.75-7.4-2.75-2.49,0-8.4,.46-17.72,1.39-16.36,1.61-25.9,2.52-28.64,2.71,.44-12.79,.66-22.44,.66-28.93,4.74-1.17,9.2-2.05,13.4-2.64,4.2-.59,8.13-.88,11.79-.88,7.47,0,15.16,1.08,23.07,3.22,1.07,.29,2.1,.44,3.08,.44,3.03,0,5.52-1.12,7.47-3.37,1.76-1.95,2.64-4.2,2.64-6.74,0-4.49-2.25-7.59-6.74-9.3-7.37-2.83-17.21-4.25-29.52-4.25-4.54,0-9.36,.36-14.46,1.06-5.1,.71-10.49,1.77-16.15,3.19-1.81-1.22-3.78-1.83-5.93-1.83-6.84,0-10.25,3.71-10.25,11.13,0,1.71,.24,4.24,.73,7.58,.49,3.34,.73,5.87,.73,7.58,0,6.49-.48,16.3-1.43,29.41-.95,13.11-1.43,22.94-1.43,29.48Z"/><path class="t" d="M186.86,283.66c0-2.88-.98-5.24-2.93-7.07-1.95-1.83-4.42-2.75-7.4-2.75-3.91,0-7.03,1.71-9.38,5.13-2.15,3.17-3.93,7.5-5.35,12.96-2,7.62-3.27,12.11-3.81,13.48-8.74,22.8-15.7,40.26-20.87,52.37-5.13-22.17-8.2-37.45-9.23-45.85-.98-7.81-1.61-12.72-1.9-14.72-1.03-6.54-2.08-11.06-3.15-13.55-2.2-5.22-5.69-7.84-10.47-7.84-5.08,0-10.06,5.32-14.94,15.97-2.05,4.44-4.71,11.94-7.98,22.49-4.05,12.94-8.03,24.17-11.94,33.69-6.01-26.37-11.4-46.44-16.19-60.21-1.56-4.49-2.95-7.59-4.17-9.3-2.2-3.12-5.15-4.69-8.86-4.69-2.83,0-5.25,.78-7.25,2.34-2.25,1.71-3.37,4.03-3.37,6.96,0,1.22,.22,2.44,.66,3.66,7.57,21.39,12.96,37.87,16.19,49.44,3.66,15.14,6.3,26.51,7.91,34.13l2.27,8.57c.1,3.47,1.42,6.2,3.96,8.2,2.34,1.81,5.3,2.71,8.86,2.71,2.83,0,5.42-.81,7.76-2.42,2.68-1.9,4.03-4.37,4.03-7.4,0-1.22-.22-2.37-.66-3.44,1.71-6.69,5.3-15.89,10.77-27.61,3.66-7.81,7.08-16.63,10.25-26.44,3.81,20.95,6.79,36.65,8.94,47.09,.59,3.57,2,8.16,4.25,13.77,.2,2.88,1.61,5.2,4.25,6.96,2.25,1.51,4.76,2.27,7.54,2.27,4.69,0,8.18-2.03,10.47-6.08,1.76-3.08,3.64-7.18,5.64-12.3,2.68-6.88,7.13-17.31,13.33-31.27,6.05-13.72,10.47-24.17,13.26-31.35,1.86-5.57,3.2-9.76,4.03-12.6,1.12-2.93,2.1-5.39,2.93-7.4,1.71-4.25,2.56-6.88,2.56-7.91Z"/><path class="t" d="M270.52,358.81c-4.3-18.12-7.94-34.2-10.91-48.27-2.1-10.45-3.64-18.29-4.61-23.51-1.81-6.49-5.4-9.74-10.77-9.74-2.83,0-10.35,9.25-22.56,27.76-8.5,12.89-16.21,25.34-23.14,37.35-4.54,1.32-6.91,3.15-7.1,5.49-.1,1.32,.19,2.74,.88,4.25-7.13,14.41-10.69,22.85-10.69,25.34,0,2.83,1.07,5.16,3.22,7,2.15,1.83,4.56,2.75,7.25,2.75,3.81,0,6.79-1.76,8.94-5.27,5.57-10.79,9.47-18.87,11.72-24.24,4.1-.73,10.01-1.37,17.72-1.9,8.2-.54,14.11-1.07,17.72-1.61,1.86,7.52,4.08,14.16,6.67,19.92,3.91,8.94,7.79,13.48,11.64,13.62,2.69,.1,5.09-.81,7.21-2.71s3.19-4.27,3.19-7.1c0-2.1-.88-5.25-2.64-9.45-2.15-5.08-3.39-8.3-3.73-9.67Zm-36.84-20.65c-4.64,.29-8.06,.68-10.25,1.17,6.69-11.28,11.94-20.19,15.75-26.73,2.05,10.16,3.66,18.41,4.83,24.76-1.42,.2-4.86,.46-10.33,.81Z"/><path class="t" d="M490.83,275.28c-7.36-2.3-34.13-2.2-39.14-2.2-12.62,0-24.17,4.15-34.65,12.46-10.48,8.3-15.79,17.44-15.95,27.41-.15,7.92,4.5,14,13.95,18.24,7,3.12,14.92,4.78,23.77,4.98,11.4,.26,18.98,1.12,22.77,2.61,5.31,2.04,7.97,6.29,7.97,12.73,0,4.7-4.27,9.02-12.8,12.96-8.23,3.83-16.75,5.3-25.53,5.75-11.11,.57-23.95,2.52-31.28,2.52-6.45,0-10.18-.12-12.79-.24-3.77-.77-6.96-1.64-9.19-2.61-10.14-4.75-16.29-14.89-29.22-22.12,8.74-3.37,15.29-7.51,19.67-12.42,4.37-4.91,6.55-10.56,6.55-16.96,0-15.53-10.42-28.54-31.27-39.04-4.79-2.44-10.6-4.08-17.43-4.91-.29-.05-6.37-.51-18.24-1.39-4.39-.34-7.84,1.15-10.33,4.47-1.9,2.59-2.86,5.47-2.86,8.64l-.15,59.11c0,3.66-.05,9.14-.15,16.44-.1,7.3-.15,12.78-.15,16.44,0,2.78,.98,5.14,2.93,7.07,1.95,1.93,4.39,2.89,7.32,2.89s5.37-.96,7.32-2.89c1.95-1.93,2.93-4.29,2.93-7.07,0-1.56-.27-9.45-.8-23.66,17.72,5.37,33.98,14.99,48.78,28.86,10.37,8.57,30.87,8.45,52.96,6.94,5.77-.37,13.04-.67,17.27-.67,14.72,0,25.15-1.98,36.6-7.14,15.03-6.8,22.54-16.79,22.54-29.97,0-10.83-3.63-19.32-10.89-25.45-6.59-5.52-15.56-8.71-26.91-9.58-6.49-.36-13.01-.72-19.55-1.07-3.73-.51-6.53-1.39-8.39-2.64-1.87-1.25-2.8-2.85-2.8-4.79,0-3.73,3.07-7.18,9.2-10.35,5.93-3.12,12.19-4.7,18.78-4.75,2.45,0,26.66-.74,31.44,.28,4.78,1.02,8.37,1.53,10.77,1.53,3.22,0,5.85-1.15,7.9-3.45,1.84-2.04,2.76-4.39,2.76-7.05,0-3.73-4.57-7.03-13.72-9.89Zm-173,57.38c-.93,0-2-.02-3.22-.07v-38.89c5.32,.34,8.18,.54,8.57,.59,7.27,.73,14.21,3.49,20.8,8.28,6.93,5.08,10.4,10.35,10.4,15.82,0,1.07-1.04,2.66-3.11,4.76-2.08,2.1-4.36,3.78-6.85,5.05-5.76,2.98-14.62,4.47-26.59,4.47Z"/><path class="t" d="M89.1,257.42c1.98,.24,3.84,.37,5.57,.37,14.7,0,26.1-2.64,34.21-7.91,7.23-4.69,12.91-10.91,17.06-18.68,4.15-7.62,6.23-15.65,6.23-24.1,0-14.01-6.03-26.81-18.09-38.38-10.11-9.72-22.31-16.89-36.62-21.53-1.42-.44-5.91-2.46-13.48-6.08-6.49-3.03-10.55-4.54-12.16-4.54-2.93,0-5.69,1.33-8.28,3.99-2.59,2.66-3.88,5.34-3.88,8.02,0,5.42,.11,13.55,.33,24.39s.33,18.97,.33,24.39c0,.5,0,1.04,0,1.6-.05,2.22-.09,4.27-.12,6.13-.03,1.02-.12,7.7-.14,9.37-.02,2.78,.93,5.15,2.85,7.09,1.92,1.94,4.33,2.93,7.24,2.95,2.9,.02,5.33-.92,7.28-2.83,1.95-1.91,2.94-4.26,2.96-7.04,.01-1.29-.13-6.91-.41-16.84l-.17-35.87c15.58,6.4,25.73,11.08,30.47,14.06,14.16,8.84,21.24,19.31,21.24,31.42,0,5.18-1.28,10.16-3.85,14.94-2.56,4.79-6.02,8.57-10.36,11.35-4.59,2.93-12.16,4.39-22.71,4.39-1.55,0-33.15-.64-33.38-.64,0,0-17.52-.62-19.54-.62-.98,0-2.42-.15-4.32-.44s-3.32-.44-4.25-.44c-2.83,0-5.25,.81-7.25,2.42-2.29,1.81-3.44,4.35-3.44,7.62,0,5.47,2.86,8.74,8.57,9.81,4.88,.93,26.52,1.64,41.91,1.64,6.07,0,11.52,.1,16.22-.01Z"/></g><g><g><path class="r" d="M233.26,207.91c-.11,10.46,17.42,11.49,17.76,.17,.35-11.32-17.59-17.42-17.76-.17Z"/><path class="r" d="M242.33,217.08c-.08,0-.15,0-.23,0-4.89-.1-9.8-3.28-9.74-9.17h0c.07-6.68,2.65-9.5,4.8-10.7,2.64-1.46,6.03-1.23,9.09,.64,3.63,2.21,5.81,6.15,5.68,10.27-.19,6.19-5.07,8.96-9.6,8.96Zm-8.17-9.15c-.05,4.72,3.98,7.27,7.98,7.35,.07,0,.13,0,.2,0,3.8,0,7.63-2.21,7.79-7.21,.13-4.15-2.41-7.21-4.82-8.68-2.49-1.52-5.21-1.74-7.27-.6-2.49,1.38-3.82,4.54-3.87,9.14h0Z"/></g><path class="r" d="M242.23,211.73s-.07,0-.11,0c-2.39-.05-4.79-1.62-4.76-4.52,.03-3.17,1.3-4.53,2.36-5.12,1.32-.73,2.99-.62,4.48,.29,1.75,1.06,2.79,2.96,2.73,4.94-.09,3.05-2.48,4.41-4.71,4.41Zm-.61-8.32c-.37,0-.72,.08-1.02,.25-.9,.5-1.41,1.77-1.43,3.56h0c-.02,1.81,1.54,2.67,2.99,2.7,1.32,.02,2.91-.65,2.98-2.66,.05-1.6-.93-2.78-1.87-3.35-.55-.33-1.12-.5-1.65-.5Zm-3.36,3.8h0Z"/><path class="s" d="M238.26,207.21c-.05,4.58,7.62,5.03,7.77,.08s-7.7-7.62-7.77-.08Z"/><path class="r" d="M268.85,202.8c-.11,0-.23-.02-.34-.07-.46-.19-.69-.71-.5-1.17h0s.34-.87,.55-2.13c.21-1.24,.32-3.09-.29-4.89-.16-.47,.09-.98,.57-1.14,.47-.16,.98,.09,1.14,.57,.73,2.16,.6,4.33,.36,5.77-.24,1.47-.64,2.47-.66,2.51-.14,.35-.48,.57-.84,.57Z"/><path class="r" d="M266.34,202.87c-.08,0-.17-.01-.25-.04-.48-.14-.75-.64-.62-1.12h0s.25-.9,.34-2.18c.08-1.25,.02-3.1-.77-4.84-.21-.45,0-.99,.45-1.19,.46-.2,.99,0,1.19,.45,.94,2.08,1.02,4.25,.93,5.7-.1,1.49-.39,2.52-.41,2.56-.12,.39-.48,.65-.87,.65Z"/><path class="r" d="M263.32,203.21c-.06,0-.11,0-.17-.02-.49-.09-.81-.57-.71-1.06,.01-.06,.69-3.84-1.08-6.95-.25-.43-.1-.98,.34-1.23,.43-.25,.98-.1,1.23,.34,2.11,3.71,1.32,8,1.28,8.18-.08,.43-.46,.73-.88,.73Z"/><path class="r" d="M260.78,204.16s-.08,0-.13,0c-.49-.07-.84-.52-.77-1.02h0s.12-.93,.02-2.2c-.1-1.25-.43-3.07-1.46-4.68-.27-.42-.15-.98,.27-1.25,.42-.27,.98-.15,1.25,.27,1.23,1.92,1.63,4.06,1.74,5.51,.12,1.49-.03,2.55-.03,2.59-.06,.45-.45,.78-.89,.78Z"/><path class="r" d="M258.58,203.97h-.02c-.5-.01-.89-.43-.88-.92,0-.03,.01-.81-.23-1.87-.24-1.06-.77-2.58-1.96-3.85-.34-.36-.32-.93,.04-1.28,.36-.34,.93-.32,1.28,.04,1.47,1.56,2.11,3.41,2.4,4.68,.29,1.31,.27,2.27,.27,2.32-.01,.49-.41,.88-.9,.88Z"/><path class="r" d="M256.26,204.83c-.46,0-.86-.35-.9-.82,0-.02-.08-.8-.44-1.84-.36-1.03-1.06-2.51-2.39-3.66-.38-.33-.42-.9-.09-1.27,.33-.38,.9-.42,1.27-.09,1.63,1.42,2.48,3.19,2.91,4.43,.44,1.27,.53,2.24,.53,2.28,.04,.5-.32,.93-.82,.98-.03,0-.05,0-.08,0Z"/><path class="r" d="M253.55,206.07c-.42,0-.8-.3-.88-.73,0-.04-.69-3.3-3.41-5.26-.4-.29-.5-.86-.2-1.26s.86-.5,1.26-.2c3.32,2.39,4.1,6.22,4.13,6.38,.1,.49-.22,.96-.71,1.06-.06,.01-.12,.02-.17,.02Z"/><g><path class="r" d="M205.99,155.62c-.1,.11-.23,.18-.37,.21-16.5,3.41-30.57,8.85-34.36,23.59-3.81,14.84-3.81,42.11,1.6,48.53,5.41,6.42,20.45,20.65,34.29,21.66,13.84,1,42.31-4.81,47.12-14.24s10.23-10.43,10.03-19.85c-.2-9.42,.2-32.48-8.22-39.1-8.42-6.62-22.86-23.06-36.9-22.46-11.08,.47-12.91,1.32-13.2,1.66Z"/><g class="v"><path class="r" d="M169.65,196.27s3.61-10.43,8.62-13.84c4.45-3.02,12.67-7.94,14.48-9.01,.22-.13,.35-.37,.34-.63l-.37-10.49c0-.2,.07-.4,.22-.54l6.4-6.22c.24-.23,.6-.27,.87-.09,1.56,.99,6.38,4.49,6.72,10.2,.03,.46,.48,.76,.91,.62,2.72-.86,11.26-2.86,20.48,1.88,.05,.02,.09,.05,.13,.09l2.63,2.14c.29,.24,.71,.21,.97-.07l7.43-7.97c.21-.22,.53-.29,.8-.17l14.13,6.11c.16,.07,.29,.2,.37,.36l11.24,24.64c.05,.12,.07,.24,.06,.37l-2.97,27.53c-.01,.1-.04,.2-.09,.28l-5.86,9.95c-.05,.09-.13,.17-.22,.23l-25.29,16.83c-.1,.06-.21,.1-.32,.12l-21.04,2.2c-.09,0-.19,0-.28-.03l-17.98-5.33c-.09-.03-.17-.07-.25-.13l-14.62-11.85c-.07-.06-.14-.14-.18-.22l-7.91-15.03c-.03-.05-.05-.11-.06-.17l-2.74-11.94c-.03-.13-.02-.27,.02-.4l3.34-9.43Z"/><path class="r" d="M199.73,155.16s6.8,3.67,7.2,10.49c.03,.46,.48,.76,.91,.63,1.38-.43,4.24-1.16,7.93-1.16s8,.69,12.56,3.04c.05,.02,.09,.05,.14,.09l2.63,2.14c.29,.24,.71,.21,.97-.07l7.43-7.97c.21-.22,.53-.29,.8-.17l14.13,6.11c.16,.07,.29,.2,.37,.36l11.24,24.64c.05,.12,.07,.24,.06,.37l-2.97,27.53c-.01,.1-.04,.2-.09,.28l-5.86,9.95c-.05,.09-.13,.17-.22,.23l-25.29,16.83c-.1,.06-.21,.1-.32,.12l-21.04,2.2c-.09,0-.19,0-.28-.03l-17.98-5.33c-.09-.03-.17-.07-.25-.13l-14.62-11.85c-.07-.06-.14-.14-.18-.22l-7.91-15.03c-.03-.05-.05-.11-.06-.17l-2.74-11.94c-.03-.13-.02-.27,.02-.4l3.34-9.43s3.61-10.43,8.62-13.84c4.45-3.02,12.67-7.94,14.48-9.01,.22-.13,.35-.37,.34-.63l-.37-10.49c0-.2,.07-.4,.22-.54l6.79-6.6m0-1.8c-.46,0-.91,.17-1.26,.51l-6.79,6.6c-.51,.5-.79,1.18-.76,1.89l.34,9.42c0,.26-.12,.5-.35,.64-2.84,1.7-9.68,5.82-13.65,8.52-5.45,3.7-9.16,14.29-9.31,14.74l-3.34,9.42c-.16,.45-.19,.94-.08,1.4l2.74,11.94,.23,.61,7.91,15.03c.16,.3,.38,.57,.64,.78l14.62,11.85c.26,.21,.55,.36,.87,.46l18.11,5.37c.17,.05,.34,.07,.51,.07,.06,0,.13,0,.19,0l21.18-2.22c.4-.04,.79-.18,1.13-.41l25.29-16.83c.32-.21,.58-.49,.78-.82l5.86-9.95c.18-.31,.29-.65,.33-1.01l2.97-27.53c.05-.45-.02-.9-.21-1.31l-11.24-24.64c-.26-.57-.72-1.02-1.29-1.27l-14.59-6.31c-.23-.1-.47-.15-.72-.15-.49,0-.97,.2-1.32,.57l-6.62,7.1c-.26,.27-.68,.3-.97,.07l-1.32-1.07-.44-.29c-4.18-2.15-8.69-3.25-13.39-3.25-2.62,0-4.85,.34-6.5,.72-.39,.09-.75-.17-.84-.55-1.47-6.38-7.55-9.74-7.85-9.9-.27-.15-.56-.22-.86-.22h0Z"/></g><path class="r" d="M169.65,196.27s3.61-10.43,8.62-13.84c4.45-3.02,12.67-7.94,14.48-9.01,.22-.13,.35-.37,.34-.63l-.37-10.49c0-.2,.07-.4,.22-.54l6.4-6.22c.24-.23,.6-.27,.87-.09,1.56,.99,6.38,4.49,6.72,10.2,.03,.46,.48,.76,.91,.62,2.72-.86,11.26-2.86,20.48,1.88,.05,.02,.09,.05,.13,.09l2.63,2.14c.29,.24,.71,.21,.97-.07l7.43-7.97c.21-.22,.53-.29,.8-.17l14.13,6.11c.16,.07,.29,.2,.37,.36l11.24,24.64c.05,.12,.07,.24,.06,.37l-2.97,27.53c-.01,.1-.04,.2-.09,.28l-5.87,9.98c-.05,.08-.11,.15-.18,.2l-24.76,19.02c-.12,.1-.28,.15-.43,.15h-21.51c-.07,0-.14,0-.2-.03l-18.01-5.34c-.09-.03-.17-.07-.25-.13l-14.62-11.85c-.07-.06-.14-.14-.18-.22l-7.91-15.03c-.03-.05-.05-.11-.06-.17l-2.74-11.94c-.03-.13-.02-.27,.02-.4l3.34-9.43Z"/><path class="r" d="M168.63,192.22c.02-.11,.05-.21,.11-.3,2.65-4.09,8.36-4.86,10.94-3.27,2.61,1.6,9.83-5.82,12.63-7.62,2.81-1.8,10.43,1.4,5.21,8.62-5.21,7.22-10.83,8.82-10.83,8.82,0,0,13.03-4.21,16.24-2.21,3.21,2.01,3.01-6.82,6.62-10.03,3.61-3.21,14.44-10.23,21.46,3.41,0,0,.8,2.81,5.82,3.61,5.01,.8,8.82,2.81,12.03,7.82,2.31,3.6-1.86,17.88-4.39,25.62-1.06,3.25-.67,6.8,1.06,9.75,.02,.03,.03,.06,.04,.08l1.21,3.13c.15,.38-.06,.81-.45,.93l-32.65,10.5c-.15,.05-.31,.05-.45,0l-29.32-10.24c-.15-.05-.27-.15-.36-.27l-13.83-20.54c-.05-.08-.09-.16-.11-.25l-2.95-14.38c-.02-.08-.02-.17,0-.25l1.96-12.95Z"/><path class="r" d="M242.91,170.53c-2.41,.52-2.71,1.2-2.63,1.62,.06,.28-.11,.56-.36,.71-.69,.41-1.74,1.14-1.56,1.68,.27,.8,1.87,2.14,3.74,1.74,1.87-.4,3.48,.4,4.81,.67,.98,.2,3.46-2.33,4.72-3.7,.36-.39,.18-1.02-.33-1.16l-7.73-2.23-.67,.67h0Z"/><path class="r" d="M196.12,169.6c.75,1.15,3.91-1.02,4.83-1.69,.16-.12,.27-.3,.29-.5,.11-1.19,.3-5.44-2.44-7.04-3.21-1.87-4.11,1.67-3.58,2.04,.53,.37,.87,3.38,.43,3.94s.1,2.67,.47,3.24Z"/><path class="u" d="M260.2,178.36l-25.52-21.84c-.12-.1-.27-.16-.43-.17l-39.34-1.58c-.16,0-.32,.04-.45,.14l-16.39,12.19c-.08,.06-.15,.14-.2,.22l-6.66,11.89c-.05,.09-.08,.2-.09,.31l-.32,5.61c-.04,.78,1.01,1.05,1.35,.35l1.78-3.71c.09-.18,.24-.31,.43-.37,20.02-6.33,47.12-6.51,65.21,9.45,13.17,11.62,12.31,30.25,10.84,39.64-.03,.22-.16,.4-.36,.5-6.18,3.36-29.8,15.48-44,12.19-16.03-3.71-25.77-20.77-26.25-21.62-.01-.02-.03-.05-.04-.07l-1.38-1.9c-.12-.17-.32-.26-.53-.29-1.55-.18-3.53-1.54-5.1-2.82-.58-.48-1.41,.17-1.09,.85l5.17,11.11c.03,.07,.08,.13,.13,.19l9.68,10.27s.1,.09,.15,.12l10.16,6.12c.05,.03,.11,.06,.17,.07l13.22,3.75c.08,.02,.17,.03,.26,.02l13.72-1.28c.06,0,.11-.02,.16-.03l13.17-4.46c.06-.02,.11-.04,.16-.08l11.55-7.45c-.1,.4-.17,.62-.17,.62,0,0,12.28-11.19,14.6-12.7,.22-.15,.35-.39,.32-.65-.44-4.76-3.37-40.52-3.66-44.11-.02-.19-.1-.36-.25-.48Z"/></g><g><path class="r" d="M249.46,152.75c-36.09-21.86-67.38,1.2-73.19,8.62-5.82,7.42-18.85,38.3-5.41,65.77,13.44,27.47,51.53,28.47,66.37,21.26,14.84-7.22,26.87-21.46,31.08-29.08,0,0,17.25-44.72-18.85-66.57Zm10.03,73.19c-3.21,4.61-16.44,17.85-36.09,21.66-19.65,3.81-39.5-4.01-50.93-27.07-11.43-23.06,5.65-51.95,18.05-57.75,18.85-8.82,40.1-4.41,57.55,12.03,17.45,16.44,11.43,51.13,11.43,51.13Z"/><path class="r" d="M217.11,253.11c-4.36,0-9.03-.43-13.78-1.45-15.47-3.3-27.29-11.86-33.28-24.12-13.55-27.71-.51-59.04,5.51-66.73,3.23-4.12,12.73-11.67,25.69-15.6,11.4-3.46,29.11-5.09,48.68,6.76,19,11.5,23.21,29.32,23.39,42.24,.2,13.93-3.99,24.96-4.17,25.43-.01,.04-.03,.08-.05,.11-4.13,7.48-16.33,22.08-31.48,29.45-4.6,2.24-11.98,3.9-20.52,3.9Zm1.04-108.61c-6.29,0-11.84,1.08-16.37,2.45-12.47,3.78-21.83,11.2-24.79,14.98-5.84,7.45-18.49,37.88-5.31,64.82,13.69,28,51.89,27.3,65.17,20.84,14.73-7.17,26.6-21.34,30.65-28.64,.32-.87,4.23-11.66,4.03-24.75-.28-18.1-7.86-31.79-22.52-40.67h0c-11.22-6.79-21.79-9.03-30.85-9.03Zm50.17,74.83h0Zm-54.3,30.09c-6.91,0-13.55-1.5-19.57-4.47-9.56-4.71-17.23-12.79-22.79-24.02-4.78-9.64-5.11-21.52-.93-33.46,4.05-11.57,12.02-22.06,19.4-25.51,9.43-4.42,19.76-5.63,29.87-3.52,10.09,2.1,20.01,7.54,28.68,15.72,17.6,16.59,11.95,50.51,11.7,51.94-.02,.13-.07,.25-.15,.36-3.11,4.47-16.53,18.12-36.66,22.03-3.22,.62-6.41,.93-9.55,.93Zm-3.66-90.25c-6.57,0-13.13,1.46-19.46,4.42-6.97,3.26-14.57,13.33-18.47,24.47-4.01,11.48-3.71,22.86,.84,32.06,10.42,21.03,28.63,30.72,49.95,26.59,19.31-3.74,32.2-16.64,35.41-21.12,.44-2.82,5.03-34.84-11.19-50.13-11.41-10.76-24.28-16.3-37.09-16.3Zm49.13,66.77h0Z"/></g><polygon class="r" points="259.35 196.6 260.82 211.71 260.02 223.34 262.56 222.4 265.37 218.52 263.9 198.2 261.49 195.26 259.35 194.86 259.35 196.6"/><path class="r" d="M217.11,253.11c-4.36,0-9.03-.43-13.78-1.45-15.47-3.3-27.29-11.86-33.28-24.12-13.55-27.71-.51-59.04,5.51-66.73,3.23-4.12,12.73-11.67,25.69-15.6,11.4-3.46,29.11-5.09,48.68,6.76,19,11.5,23.21,29.32,23.39,42.24,.2,13.93-3.99,24.96-4.17,25.43-.01,.04-.03,.08-.05,.11-4.13,7.48-16.33,22.08-31.48,29.45-4.6,2.24-11.98,3.9-20.52,3.9Zm1.04-108.61c-6.29,0-11.84,1.08-16.37,2.45-12.47,3.78-21.83,11.2-24.79,14.98-5.84,7.45-18.49,37.88-5.31,64.82,13.69,28,51.89,27.3,65.17,20.84,14.73-7.17,26.6-21.34,30.65-28.64,.32-.87,4.23-11.66,4.03-24.75-.28-18.1-7.86-31.79-22.52-40.67h0c-11.22-6.79-21.79-9.03-30.85-9.03Zm50.17,74.83h0Zm-54.3,30.09c-6.91,0-13.55-1.5-19.57-4.47-9.56-4.71-17.23-12.79-22.79-24.02-4.78-9.64-5.11-21.52-.93-33.46,4.05-11.57,12.02-22.06,19.4-25.51,9.43-4.42,19.76-5.63,29.87-3.52,10.09,2.1,20.01,7.54,28.68,15.72,17.6,16.59,11.95,50.51,11.7,51.94-.02,.13-.07,.25-.15,.36-3.11,4.47-16.53,18.12-36.66,22.03-3.22,.62-6.41,.93-9.55,.93Zm-3.66-90.25c-6.57,0-13.13,1.46-19.46,4.42-6.97,3.26-14.57,13.33-18.47,24.47-4.01,11.48-3.71,22.86,.84,32.06,10.42,21.03,28.63,30.72,49.95,26.59,19.31-3.74,32.2-16.64,35.41-21.12,.44-2.82,5.03-34.84-11.19-50.13-11.41-10.76-24.28-16.3-37.09-16.3Zm49.13,66.77h0Z"/><path class="r" d="M259.49,226.65c-.21,0-.43-.08-.6-.23-.37-.33-.4-.9-.07-1.27l5.51-6.15c-.06-2.19-.45-13.98-1.57-22.44-.13-.99-.27-1.91-.41-2.74-1.4-8.18-5.21-15.21-12.33-22.8-8.59-9.14-20.45-14.31-35.23-15.36-20.19-1.43-31.33,7-36.18,12.15-6,6.38-7.63,23.88-7.65,24.06-.05,.5-.49,.85-.98,.82-.5-.04-.86-.48-.82-.98,.07-.74,1.71-18.3,8.13-25.13,5.06-5.39,16.68-14.2,37.62-12.71,15.25,1.08,27.51,6.44,36.42,15.92,7.38,7.86,11.33,15.17,12.8,23.73,.15,.85,.29,1.79,.42,2.8,1.25,9.42,1.59,22.86,1.6,22.99,0,.23-.08,.45-.23,.62l-5.75,6.42c-.18,.2-.42,.3-.67,.3Z"/><path class="s" d="M173.4,184.84s5.21-13.1,9.22-16.18c4.01-3.07,9.76-9.89,24.06-10.29,14.3-.4,30.75,6.82,34.09,10.03,3.34,3.21,12.03,8.96,14.3,15.64s3.48,10.83,3.48,10.83l4.41,1.34,1.6,8.82,.67,14.3-3.61,4.01,3.21,.94,3.88-6.02s6.82-22.86,1.74-38.77c-5.08-15.91-8.82-15.51-8.82-15.51,0,0,5.08,17.38-5.88,11.23l-12.43-11.63-12.57-6.42-15.91-2.41-17.11,.8-14.84,7.35-6.42,6.02-2.67,6.02-1.87,6.68-1.07,6.15,2.54-2.94Z"/><path class="r" d="M263.65,197.33c-.12,0-.23-.02-.35-.07l-4.69-1.97c-.46-.19-.68-.72-.48-1.18,.19-.46,.72-.68,1.18-.48l4.69,1.97c.46,.19,.68,.72,.48,1.18-.15,.35-.48,.55-.83,.55Z"/></g><g><path class="r" d="M186.1,212.72c1.87-.13,7.49-4.01,7.36-6.29-.13-2.27-3.21-4.15-5.89-4.28-2.68-.13-3.88-.67-6.02,.54-2.14,1.2-.13,7.22,1.87,8.43l2.68,1.61Z"/><polygon class="r" points="209.11 217.79 211.72 220.2 215.43 217.09 216.13 213.27 209.11 217.79"/><polygon class="r" points="181.21 216.99 183.82 222.2 186.03 224.81 187.03 221.9 191.05 219.9 187.74 218.19 186.03 216.28 183.92 217.49 181.21 216.99"/><polyline class="r" points="187.03 225.82 186.43 223.11 190.14 219.39 197.77 220 208.01 217.99 210.91 219.19 210.71 221.5 206.3 224.21 197.37 226.92 189.14 226.72 187.03 225.82"/><path class="r" d="M195.98,220.79c-1.67,0-3.36-.11-5.05-.34-1.88-.26-3.99-2.04-5.12-3.11-.28,.26-.65,.51-1.13,.67-1.4,.46-3.16-.03-5.24-1.45-5.32-3.65-.34-12.09-.13-12.45,.26-.43,.81-.56,1.24-.31,.43,.26,.57,.81,.31,1.24-.04,.07-4.32,7.34-.4,10.03,1.54,1.06,2.84,1.5,3.66,1.23,.54-.18,.73-.64,.73-.65,.1-.3,.36-.52,.67-.59,.31-.07,.63,.04,.85,.27,.78,.85,3.18,3.11,4.81,3.33,9.97,1.36,19.78-1.57,25.61-7.64,.35-.36,.92-.37,1.28-.03,.36,.35,.37,.92,.03,1.28-5.22,5.44-13.39,8.52-22.11,8.52Z"/><path class="r" d="M180.25,224.45c-.31,0-.61-.16-.78-.44-2.46-4.11-1.88-8.23-1.86-8.41,.07-.49,.54-.84,1.03-.76,.49,.07,.83,.53,.76,1.02,0,.06-.49,3.69,1.62,7.21,.26,.43,.12,.98-.31,1.24-.15,.09-.31,.13-.46,.13Z"/><path class="r" d="M186.33,225.81h0c-.5,0-.89-.4-.89-.9,0-.06,.09-5.8,8.1-6.02,.48-.02,.91,.38,.93,.88,.01,.5-.38,.91-.88,.93-6.2,.17-6.34,4.06-6.35,4.22,0,.49-.41,.89-.9,.89Z"/><path class="r" d="M211.22,221.3s-.06,0-.09,0c-.5-.05-.86-.49-.81-.99,.03-.32-.06-.45-.17-.55-.76-.67-3.4-.45-4.95-.09-.49,.11-.97-.19-1.08-.68-.11-.49,.19-.97,.68-1.08,.79-.18,4.83-1.02,6.55,.5,.41,.36,.88,1.01,.77,2.08-.05,.47-.44,.82-.9,.82Z"/><path class="r" d="M193.17,228.07c-.54,0-1.07-.02-1.59-.05-9.59-.65-10.56-10.86-10.57-10.96-.04-.5,.33-.93,.82-.98,.5-.03,.93,.33,.98,.82,.03,.37,.87,8.77,8.89,9.31,8.65,.58,22.01-4.09,24.65-14.37,.12-.48,.62-.78,1.1-.65,.48,.12,.77,.62,.65,1.1-2.84,11.07-15.97,15.78-24.94,15.78Z"/><g><path class="r" d="M213.97,200.08s2.5,4.44,9.27,.32c6.76-4.12,.25-9.82-4.51-8.87-4.76,.95-6.76,5.55-4.76,8.56Z"/><path class="r" d="M218.04,203.06c-.56,0-1.09-.07-1.61-.2-2.08-.54-3.07-2.03-3.23-2.29-1.05-1.59-1.2-3.57-.43-5.45,.94-2.27,3.1-3.94,5.77-4.48,3.2-.63,7.1,1.34,8.19,4.15,.43,1.1,.99,3.92-3.04,6.38-2.06,1.26-3.96,1.89-5.67,1.89Zm-3.29-3.42c.03,.06,.68,1.11,2.18,1.49,1.6,.4,3.56-.1,5.84-1.49,1.45-.88,3.02-2.32,2.29-4.18-.78-2-3.83-3.5-6.16-3.03-2.08,.42-3.75,1.69-4.46,3.4-.55,1.32-.45,2.69,.27,3.77,.01,.02,.02,.03,.03,.05Z"/></g><path class="r" d="M226.37,195.41l-1.88-2.73s-9.86-.77-7.7,8.5l1.32,1.25,4.32-1.31,3.38-2.73,.56-2.97Z"/><path class="ac" d="M220.99,223.56c3.79,.14,7.32-.65,10.6-2.37,3.41-1.11,6.36-3,8.85-5.69,2.68-2.49,4.58-5.44,5.69-8.85,1.72-3.28,2.51-6.81,2.37-10.6l-.98-7.31c-1.31-4.66-3.66-8.7-7.07-12.13l-5.57-4.3c-4.29-2.49-8.92-3.74-13.88-3.75-3.79-.14-7.32,.65-10.6,2.37-3.41,1.11-6.36,3-8.85,5.69-2.68,2.49-4.58,5.44-5.69,8.85-1.72,3.28-2.51,6.81-2.37,10.6l.98,7.31c1.31,4.66,3.66,8.7,7.07,12.13l5.57,4.3c4.29,2.49,8.92,3.74,13.88,3.75h0Z"/><g><path class="r" d="M184.3,194.98s1.98,3.66,7.33,.26c5.35-3.4,.2-8.1-3.57-7.31-3.76,.78-5.35,4.57-3.76,7.05Z"/><path class="r" d="M187.52,197.59c-.44,0-.87-.05-1.28-.16-1.74-.45-2.57-1.73-2.71-1.98-.86-1.36-.98-3.12-.31-4.72,.79-1.87,2.53-3.25,4.66-3.69,2.59-.54,5.7,1.06,6.66,3.42,.39,.96,.93,3.41-2.43,5.54-1.66,1.06-3.2,1.59-4.59,1.59Zm-2.43-3.05s.52,.87,1.64,1.15c1.18,.29,2.71-.13,4.42-1.21,1.12-.71,2.32-1.86,1.72-3.34-.63-1.56-2.88-2.7-4.62-2.33-1.57,.33-2.8,1.28-3.36,2.62-.45,1.07-.39,2.18,.17,3.06,0,.02,.02,.03,.03,.05Z"/></g><path class="r" d="M194.11,191.13l-1.49-2.25s-7.8-.64-6.09,7l1.04,1.03,3.42-1.08,2.67-2.25,.45-2.45Z"/><path class="ac" d="M189.86,219.16c3.79,.14,7.32-.65,10.6-2.37,3.41-1.11,6.36-3,8.85-5.69,2.68-2.49,4.58-5.44,5.69-8.85,1.72-3.28,2.51-6.81,2.37-10.6l-.98-7.31c-1.31-4.66-3.66-8.7-7.07-12.13l-5.57-4.3c-4.29-2.49-8.92-3.74-13.88-3.75-3.79-.14-7.32,.65-10.6,2.37-3.41,1.11-6.36,3-8.85,5.69-2.68,2.49-4.58,5.44-5.69,8.85-1.72,3.28-2.51,6.81-2.37,10.6l.98,7.31c1.31,4.66,3.66,8.7,7.07,12.13l5.57,4.3c4.29,2.49,8.92,3.74,13.88,3.75h0Z"/><g><g><g><path class="ae" d="M233.26,207.91c-.11,10.46,17.42,11.49,17.76,.17,.35-11.32-17.59-17.42-17.76-.17Z"/><path class="aa" d="M242.33,217.08c-.08,0-.15,0-.23,0-4.89-.1-9.8-3.28-9.74-9.17h0c.07-6.68,2.65-9.5,4.8-10.7,2.64-1.46,6.03-1.23,9.09,.64,3.63,2.21,5.81,6.15,5.68,10.27-.19,6.19-5.07,8.96-9.6,8.96Zm-8.17-9.15c-.05,4.72,3.98,7.27,7.98,7.35,.07,0,.13,0,.2,0,3.8,0,7.63-2.21,7.79-7.21,.13-4.15-2.41-7.21-4.82-8.68-2.49-1.52-5.21-1.74-7.27-.6-2.49,1.38-3.82,4.54-3.87,9.14h0Z"/></g><path class="aa" d="M242.23,211.73s-.07,0-.11,0c-2.39-.05-4.79-1.62-4.76-4.52,.03-3.17,1.3-4.53,2.36-5.12,1.32-.73,2.99-.62,4.48,.29,1.75,1.06,2.79,2.96,2.73,4.94-.09,3.05-2.48,4.41-4.71,4.41Zm-.61-8.32c-.37,0-.72,.08-1.02,.25-.9,.5-1.41,1.77-1.43,3.56h0c-.02,1.81,1.54,2.67,2.99,2.7,1.32,.02,2.91-.65,2.98-2.66,.05-1.6-.93-2.78-1.87-3.35-.55-.33-1.12-.5-1.65-.5Zm-3.36,3.8h0Z"/><path class="y" d="M238.26,207.21c-.05,4.58,7.62,5.03,7.77,.08s-7.7-7.62-7.77-.08Z"/><path class="aa" d="M268.85,202.8c-.11,0-.23-.02-.34-.07-.46-.19-.69-.71-.5-1.17h0s.34-.87,.55-2.13c.21-1.24,.32-3.09-.29-4.89-.16-.47,.09-.98,.57-1.14,.47-.16,.98,.09,1.14,.57,.73,2.16,.6,4.33,.36,5.77-.24,1.47-.64,2.47-.66,2.51-.14,.35-.48,.57-.84,.57Z"/><path class="aa" d="M266.34,202.87c-.08,0-.17-.01-.25-.04-.48-.14-.75-.64-.62-1.12h0s.25-.9,.34-2.18c.08-1.25,.02-3.1-.77-4.84-.21-.45,0-.99,.45-1.19,.46-.2,.99,0,1.19,.45,.94,2.08,1.02,4.25,.93,5.7-.1,1.49-.39,2.52-.41,2.56-.12,.39-.48,.65-.87,.65Z"/><path class="aa" d="M263.32,203.21c-.06,0-.11,0-.17-.02-.49-.09-.81-.57-.71-1.06,.01-.06,.69-3.84-1.08-6.95-.25-.43-.1-.98,.34-1.23,.43-.25,.98-.1,1.23,.34,2.11,3.71,1.32,8,1.28,8.18-.08,.43-.46,.73-.88,.73Z"/><path class="aa" d="M260.78,204.16s-.08,0-.13,0c-.49-.07-.84-.52-.77-1.02h0s.12-.93,.02-2.2c-.1-1.25-.43-3.07-1.46-4.68-.27-.42-.15-.98,.27-1.25,.42-.27,.98-.15,1.25,.27,1.23,1.92,1.63,4.06,1.74,5.51,.12,1.49-.03,2.55-.03,2.59-.06,.45-.45,.78-.89,.78Z"/><path class="aa" d="M258.58,203.97h-.02c-.5-.01-.89-.43-.88-.92,0-.03,.01-.81-.23-1.87-.24-1.06-.77-2.58-1.96-3.85-.34-.36-.32-.93,.04-1.28,.36-.34,.93-.32,1.28,.04,1.47,1.56,2.11,3.41,2.4,4.68,.29,1.31,.27,2.27,.27,2.32-.01,.49-.41,.88-.9,.88Z"/><path class="aa" d="M256.26,204.83c-.46,0-.86-.35-.9-.82,0-.02-.08-.8-.44-1.84-.36-1.03-1.06-2.51-2.39-3.66-.38-.33-.42-.9-.09-1.27,.33-.38,.9-.42,1.27-.09,1.63,1.42,2.48,3.19,2.91,4.43,.44,1.27,.53,2.24,.53,2.28,.04,.5-.32,.93-.82,.98-.03,0-.05,0-.08,0Z"/><path class="aa" d="M253.55,206.07c-.42,0-.8-.3-.88-.73,0-.04-.69-3.3-3.41-5.26-.4-.29-.5-.86-.2-1.26s.86-.5,1.26-.2c3.32,2.39,4.1,6.22,4.13,6.38,.1,.49-.22,.96-.71,1.06-.06,.01-.12,.02-.17,.02Z"/><g><path class="x" d="M205.95,155.76c-16.64,3.41-30.88,8.82-34.69,23.66-3.81,14.84-3.81,42.11,1.6,48.53,5.41,6.42,20.45,20.65,34.29,21.66,13.84,1,42.31-4.81,47.12-14.24s10.23-10.43,10.03-19.85c-.2-9.42,.2-32.48-8.22-39.1-8.42-6.62-22.86-23.06-36.9-22.46-14.04,.6-13.23,1.8-13.23,1.8Z"/><g class="v"><path class="o" d="M169.65,196.27s3.61-10.43,8.62-13.84c5.01-3.41,14.84-9.22,14.84-9.22l-.4-11.23,7.02-6.82s7.42,4.01,7.22,11.43c0,0,10.23-4.21,21.46,1.6l3.21,2.61,8.22-8.82,14.84,6.42,11.43,25.07-3.01,27.87-6.02,10.23-25.57,17.01-21.35,2.24-18.25-5.41-14.84-12.03-8.02-15.24-2.81-12.23,3.41-9.63Z"/><path class="aa" d="M199.73,155.16s7.42,4.01,7.22,11.43c0,0,3.58-1.47,8.83-1.47,3.62,0,8.04,.7,12.63,3.08l3.21,2.61,8.22-8.82,14.84,6.42,11.43,25.07-3.01,27.87-6.02,10.23-25.57,17.01-21.35,2.24-18.25-5.41-14.84-12.03-8.02-15.24-2.81-12.23,3.41-9.63s3.61-10.43,8.62-13.84c5.01-3.41,14.84-9.22,14.84-9.22l-.4-11.23,7.02-6.82m0-1.8c-.46,0-.91,.17-1.26,.51l-7.02,6.82c-.37,.36-.56,.85-.55,1.36l.36,10.16c-2.58,1.54-9.86,5.91-14.01,8.74-5.45,3.7-9.16,14.29-9.31,14.74l-3.4,9.61c-.11,.32-.13,.67-.06,1.01l2.81,12.23c.03,.15,.09,.3,.16,.44l8.02,15.24c.11,.22,.27,.41,.46,.56l14.84,12.03c.18,.15,.4,.26,.62,.33l18.25,5.41c.17,.05,.34,.07,.51,.07,.06,0,.13,0,.19,0l21.35-2.24c.29-.03,.57-.13,.81-.29l25.57-17.01c.23-.15,.42-.35,.56-.59l6.02-10.23c.13-.22,.21-.47,.24-.72l3.01-27.87c.03-.32-.02-.65-.15-.94l-11.43-25.07c-.19-.41-.52-.73-.93-.91l-14.84-6.42c-.23-.1-.47-.15-.72-.15-.49,0-.97,.2-1.32,.57l-7.07,7.59-1.9-1.54c-.1-.08-.2-.15-.31-.2-4.2-2.18-8.73-3.28-13.46-3.28-3.01,0-5.51,.46-7.19,.88-1.16-6.85-7.69-10.46-7.99-10.62-.27-.15-.56-.22-.86-.22h0Z"/></g><path class="o" d="M169.65,196.27s3.61-10.43,8.62-13.84c5.01-3.41,14.84-9.22,14.84-9.22l-.4-11.23,7.02-6.82s7.42,4.01,7.22,11.43c0,0,10.23-4.21,21.46,1.6l3.21,2.61,8.22-8.82,14.84,6.42,11.43,25.07-3.01,27.87-6.02,10.23-25.07,19.25h-21.86l-18.25-5.41-14.84-12.03-8.02-15.24-2.81-12.23,3.41-9.63Z"/><path class="ad" d="M168.65,192.06c2.61-4.21,8.42-5.01,11.03-3.41,2.61,1.6,9.83-5.82,12.63-7.62,2.81-1.8,10.43,1.4,5.21,8.62-5.21,7.22-10.83,8.82-10.83,8.82,0,0,13.03-4.21,16.24-2.21,3.21,2.01,3.01-6.82,6.62-10.03,3.61-3.21,14.44-10.23,21.46,3.41,0,0,.8,2.81,5.82,3.61,5.01,.8,8.82,2.81,12.03,7.82,2.31,3.6-1.86,17.88-4.39,25.62-1.07,3.27-.67,6.83,1.09,9.79l1.5,3.88-33.59,10.81-29.77-10.4-14.04-20.85-3.01-14.64,2.01-13.23Z"/><path class="a`" d="M242.91,170.53c-3.74,.8-2.41,2.01-2.41,2.01,0,0-2.41,1.2-2.14,2.01s1.87,2.14,3.74,1.74c1.87-.4,3.48,.4,4.81,.67,1.34,.27,5.48-4.55,5.48-4.55l-8.82-2.54-.67,.67h0Z"/><path class="a`" d="M196.12,169.6c.87,1.35,5.08-1.87,5.08-1.87,0,0,.8-5.48-2.41-7.35-3.21-1.87-4.11,1.67-3.58,2.04,.53,.37,.87,3.38,.43,3.94s.1,2.67,.47,3.24Z"/><path class="ab" d="M260.42,178.55l-25.93-22.19-39.84-1.6-16.71,12.43-6.82,12.17-.53,9.36,3.48-7.22c20.05-6.42,47.32-6.68,65.5,9.36,13.33,11.76,12.29,30.71,10.78,39.98-5.67,3.11-29.86,15.7-44.3,12.35-16.44-3.81-26.27-21.66-26.27-21.66l-1.6-2.21c-3.01,0-8.02-5.21-8.02-5.21l6.72,14.44,9.83,10.43,10.33,6.22,13.44,3.81,13.94-1.3,13.33-4.51,11.63-7.5c-.1,.4-.17,.62-.17,.62,0,0,14.89-13.56,14.97-12.84-.13-.77-3.74-44.91-3.74-44.91Z"/></g><g><path class="af" d="M249.46,152.75c-36.09-21.86-67.38,1.2-73.19,8.62-5.82,7.42-18.85,38.3-5.41,65.77,13.44,27.47,51.53,28.47,66.37,21.26,14.84-7.22,26.87-21.46,31.08-29.08,0,0,17.25-44.72-18.85-66.57Zm10.03,73.19c-3.21,4.61-16.44,17.85-36.09,21.66-19.65,3.81-39.5-4.01-50.93-27.07-11.43-23.06,5.65-51.95,18.05-57.75,18.85-8.82,40.1-4.41,57.55,12.03,17.45,16.44,11.43,51.13,11.43,51.13Z"/><path class="aa" d="M217.11,253.11c-4.36,0-9.03-.43-13.78-1.45-15.47-3.3-27.29-11.86-33.28-24.12-13.55-27.71-.51-59.04,5.51-66.73,3.23-4.12,12.73-11.67,25.69-15.6,11.4-3.46,29.11-5.09,48.68,6.76,19,11.5,23.21,29.32,23.39,42.24,.2,13.93-3.99,24.96-4.17,25.43-.01,.04-.03,.08-.05,.11-4.13,7.48-16.33,22.08-31.48,29.45-4.6,2.24-11.98,3.9-20.52,3.9Zm1.04-108.61c-6.29,0-11.84,1.08-16.37,2.45-12.47,3.78-21.83,11.2-24.79,14.98-5.84,7.45-18.49,37.88-5.31,64.82,13.69,28,51.89,27.3,65.17,20.84,14.73-7.17,26.6-21.34,30.65-28.64,.32-.87,4.23-11.66,4.03-24.75-.28-18.1-7.86-31.79-22.52-40.67h0c-11.22-6.79-21.79-9.03-30.85-9.03Zm50.17,74.83h0Zm-54.3,30.09c-6.91,0-13.55-1.5-19.57-4.47-9.56-4.71-17.23-12.79-22.79-24.02-4.78-9.64-5.11-21.52-.93-33.46,4.05-11.57,12.02-22.06,19.4-25.51,9.43-4.42,19.76-5.63,29.87-3.52,10.09,2.1,20.01,7.54,28.68,15.72,17.6,16.59,11.95,50.51,11.7,51.94-.02,.13-.07,.25-.15,.36-3.11,4.47-16.53,18.12-36.66,22.03-3.22,.62-6.41,.93-9.55,.93Zm-3.66-90.25c-6.57,0-13.13,1.46-19.46,4.42-6.97,3.26-14.57,13.33-18.47,24.47-4.01,11.48-3.71,22.86,.84,32.06,10.42,21.03,28.63,30.72,49.95,26.59,19.31-3.74,32.2-16.64,35.41-21.12,.44-2.82,5.03-34.84-11.19-50.13-11.41-10.76-24.28-16.3-37.09-16.3Zm49.13,66.77h0Z"/></g><polygon class="p" points="259.35 196.6 260.82 211.71 260.02 223.34 262.56 222.4 265.37 218.52 263.9 198.2 261.49 195.26 259.35 194.86 259.35 196.6"/><path class="aa" d="M217.11,253.11c-4.36,0-9.03-.43-13.78-1.45-15.47-3.3-27.29-11.86-33.28-24.12-13.55-27.71-.51-59.04,5.51-66.73,3.23-4.12,12.73-11.67,25.69-15.6,11.4-3.46,29.11-5.09,48.68,6.76,19,11.5,23.21,29.32,23.39,42.24,.2,13.93-3.99,24.96-4.17,25.43-.01,.04-.03,.08-.05,.11-4.13,7.48-16.33,22.08-31.48,29.45-4.6,2.24-11.98,3.9-20.52,3.9Zm1.04-108.61c-6.29,0-11.84,1.08-16.37,2.45-12.47,3.78-21.83,11.2-24.79,14.98-5.84,7.45-18.49,37.88-5.31,64.82,13.69,28,51.89,27.3,65.17,20.84,14.73-7.17,26.6-21.34,30.65-28.64,.32-.87,4.23-11.66,4.03-24.75-.28-18.1-7.86-31.79-22.52-40.67h0c-11.22-6.79-21.79-9.03-30.85-9.03Zm50.17,74.83h0Zm-54.3,30.09c-6.91,0-13.55-1.5-19.57-4.47-9.56-4.71-17.23-12.79-22.79-24.02-4.78-9.64-5.11-21.52-.93-33.46,4.05-11.57,12.02-22.06,19.4-25.51,9.43-4.42,19.76-5.63,29.87-3.52,10.09,2.1,20.01,7.54,28.68,15.72,17.6,16.59,11.95,50.51,11.7,51.94-.02,.13-.07,.25-.15,.36-3.11,4.47-16.53,18.12-36.66,22.03-3.22,.62-6.41,.93-9.55,.93Zm-3.66-90.25c-6.57,0-13.13,1.46-19.46,4.42-6.97,3.26-14.57,13.33-18.47,24.47-4.01,11.48-3.71,22.86,.84,32.06,10.42,21.03,28.63,30.72,49.95,26.59,19.31-3.74,32.2-16.64,35.41-21.12,.44-2.82,5.03-34.84-11.19-50.13-11.41-10.76-24.28-16.3-37.09-16.3Zm49.13,66.77h0Z"/><path class="aa" d="M259.49,226.65c-.21,0-.43-.08-.6-.23-.37-.33-.4-.9-.07-1.27l5.51-6.15c-.06-2.19-.45-13.98-1.57-22.44-.13-.99-.27-1.91-.41-2.74-1.4-8.18-5.21-15.21-12.33-22.8-8.59-9.14-20.45-14.31-35.23-15.36-20.19-1.43-31.33,7-36.18,12.15-6,6.38-7.63,23.88-7.65,24.06-.05,.5-.49,.85-.98,.82-.5-.04-.86-.48-.82-.98,.07-.74,1.71-18.3,8.13-25.13,5.06-5.39,16.68-14.2,37.62-12.71,15.25,1.08,27.51,6.44,36.42,15.92,7.38,7.86,11.33,15.17,12.8,23.73,.15,.85,.29,1.79,.42,2.8,1.25,9.42,1.59,22.86,1.6,22.99,0,.23-.08,.45-.23,.62l-5.75,6.42c-.18,.2-.42,.3-.67,.3Z"/><path class="y" d="M173.4,184.84s5.21-13.1,9.22-16.18c4.01-3.07,9.76-9.89,24.06-10.29,14.3-.4,30.75,6.82,34.09,10.03,3.34,3.21,12.03,8.96,14.3,15.64s3.48,10.83,3.48,10.83l4.41,1.34,1.6,8.82,.67,14.3-3.61,4.01,3.21,.94,3.88-6.02s6.82-22.86,1.74-38.77c-5.08-15.91-8.82-15.51-8.82-15.51,0,0,5.08,17.38-5.88,11.23l-12.43-11.63-12.57-6.42-15.91-2.41-17.11,.8-14.84,7.35-6.42,6.02-2.67,6.02-1.87,6.68-1.07,6.15,2.54-2.94Z"/><path class="aa" d="M263.65,197.33c-.12,0-.23-.02-.35-.07l-4.69-1.97c-.46-.19-.68-.72-.48-1.18,.19-.46,.72-.68,1.18-.48l4.69,1.97c.46,.19,.68,.72,.48,1.18-.15,.35-.48,.55-.83,.55Z"/></g><g><path class="aa" d="M186.1,212.72c1.87-.13,7.49-4.01,7.36-6.29-.13-2.27-3.21-4.15-5.89-4.28-2.68-.13-3.88-.67-6.02,.54-2.14,1.2-.13,7.22,1.87,8.43l2.68,1.61Z"/><polygon class="q" points="209.11 217.79 211.72 220.2 215.43 217.09 216.13 213.27 209.11 217.79"/><polygon class="q" points="181.21 216.99 183.82 222.2 186.03 224.81 187.03 221.9 191.05 219.9 187.74 218.19 186.03 216.28 183.92 217.49 181.21 216.99"/><polyline class="w" points="187.03 225.82 186.43 223.11 190.14 219.39 197.77 220 208.01 217.99 210.91 219.19 210.71 221.5 206.3 224.21 197.37 226.92 189.14 226.72 187.03 225.82"/><path class="aa" d="M195.98,220.79c-1.67,0-3.36-.11-5.05-.34-1.88-.26-3.99-2.04-5.12-3.11-.28,.26-.65,.51-1.13,.67-1.4,.46-3.16-.03-5.24-1.45-5.32-3.65-.34-12.09-.13-12.45,.26-.43,.81-.56,1.24-.31,.43,.26,.57,.81,.31,1.24-.04,.07-4.32,7.34-.4,10.03,1.54,1.06,2.84,1.5,3.66,1.23,.54-.18,.73-.64,.73-.65,.1-.3,.36-.52,.67-.59,.31-.07,.63,.04,.85,.27,.78,.85,3.18,3.11,4.81,3.33,9.97,1.36,19.78-1.57,25.61-7.64,.35-.36,.92-.37,1.28-.03,.36,.35,.37,.92,.03,1.28-5.22,5.44-13.39,8.52-22.11,8.52Z"/><path class="aa" d="M180.25,224.45c-.31,0-.61-.16-.78-.44-2.46-4.11-1.88-8.23-1.86-8.41,.07-.49,.54-.84,1.03-.76,.49,.07,.83,.53,.76,1.02,0,.06-.49,3.69,1.62,7.21,.26,.43,.12,.98-.31,1.24-.15,.09-.31,.13-.46,.13Z"/><path class="aa" d="M186.33,225.81h0c-.5,0-.89-.4-.89-.9,0-.06,.09-5.8,8.1-6.02,.48-.02,.91,.38,.93,.88,.01,.5-.38,.91-.88,.93-6.2,.17-6.34,4.06-6.35,4.22,0,.49-.41,.89-.9,.89Z"/><path class="aa" d="M211.22,221.3s-.06,0-.09,0c-.5-.05-.86-.49-.81-.99,.03-.32-.06-.45-.17-.55-.76-.67-3.4-.45-4.95-.09-.49,.11-.97-.19-1.08-.68-.11-.49,.19-.97,.68-1.08,.79-.18,4.83-1.02,6.55,.5,.41,.36,.88,1.01,.77,2.08-.05,.47-.44,.82-.9,.82Z"/><path class="aa" d="M193.17,228.07c-.54,0-1.07-.02-1.59-.05-9.59-.65-10.56-10.86-10.57-10.96-.04-.5,.33-.93,.82-.98,.5-.03,.93,.33,.98,.82,.03,.37,.87,8.77,8.89,9.31,8.65,.58,22.01-4.09,24.65-14.37,.12-.48,.62-.78,1.1-.65,.48,.12,.77,.62,.65,1.1-2.84,11.07-15.97,15.78-24.94,15.78Z"/><g><path class="af" d="M213.97,200.08s2.5,4.44,9.27,.32c6.76-4.12,.25-9.82-4.51-8.87-4.76,.95-6.76,5.55-4.76,8.56Z"/><path class="aa" d="M218.04,203.06c-.56,0-1.09-.07-1.61-.2-2.08-.54-3.07-2.03-3.23-2.29-1.05-1.59-1.2-3.57-.43-5.45,.94-2.27,3.1-3.94,5.77-4.48,3.2-.63,7.1,1.34,8.19,4.15,.43,1.1,.99,3.92-3.04,6.38-2.06,1.26-3.96,1.89-5.67,1.89Zm-3.29-3.42c.03,.06,.68,1.11,2.18,1.49,1.6,.4,3.56-.1,5.84-1.49,1.45-.88,3.02-2.32,2.29-4.18-.78-2-3.83-3.5-6.16-3.03-2.08,.42-3.75,1.69-4.46,3.4-.55,1.32-.45,2.69,.27,3.77,.01,.02,.02,.03,.03,.05Z"/></g><path class="aa" d="M226.37,195.41l-1.88-2.73s-9.86-.77-7.7,8.5l1.32,1.25,4.32-1.31,3.38-2.73,.56-2.97Z"/><path class="n" d="M220.99,196.81c.97,0,.97-1.5,0-1.5s-.97,1.5,0,1.5h0Z"/><g><path class="af" d="M184.3,194.98s1.98,3.66,7.33,.26c5.35-3.4,.2-8.1-3.57-7.31-3.76,.78-5.35,4.57-3.76,7.05Z"/><path class="aa" d="M187.52,197.59c-.44,0-.87-.05-1.28-.16-1.74-.45-2.57-1.73-2.71-1.98-.86-1.36-.98-3.12-.31-4.72,.79-1.87,2.53-3.25,4.66-3.69,2.59-.54,5.7,1.06,6.66,3.42,.39,.96,.93,3.41-2.43,5.54-1.66,1.06-3.2,1.59-4.59,1.59Zm-2.43-3.05s.52,.87,1.64,1.15c1.18,.29,2.71-.13,4.42-1.21,1.12-.71,2.32-1.86,1.72-3.34-.63-1.56-2.88-2.7-4.62-2.33-1.57,.33-2.8,1.28-3.36,2.62-.45,1.07-.39,2.18,.17,3.06,0,.02,.02,.03,.03,.05Z"/></g><path class="aa" d="M194.11,191.13l-1.49-2.25s-7.8-.64-6.09,7l1.04,1.03,3.42-1.08,2.67-2.25,.45-2.45Z"/><path class="n" d="M189.86,192.41c.97,0,.97-1.5,0-1.5s-.97,1.5,0,1.5h0Z"/></g></g></g></g><polygon class="ac" points="73.61 344.06 76.66 358.95 81.83 344.95 73.61 344.06"/><polygon class="ac" points="133.33 353.95 136.38 368.84 141.55 354.84 133.33 353.95"/></g></svg>